<?xml version="1.0" standalone="no"?>
<!DOCTYPE svg PUBLIC "-//W3C//DTD SVG 1.1//EN" "http://www.w3.org/Graphics/SVG/1.1/DTD/svg11.dtd" >
<svg xmlns="http://www.w3.org/2000/svg" xmlns:xlink="http://www.w3.org/1999/xlink" version="1.1">
<metadata>
Created by FontForge 20201107 at Wed Apr  3 18:55:33 2024
 By 
Copyright (c) 2021 by Zamroni Hamzah. All rights reserved.
</metadata>
<defs>
<font id="SVN-Ginger-Regular" horiz-adv-x="1505" >
  <font-face 
    font-family="SVN-Ginger"
    font-weight="400"
    font-stretch="normal"
    units-per-em="2048"
    panose-1="0 0 0 0 0 0 0 0 0 0"
    ascent="1638"
    descent="-410"
    x-height="1104"
    cap-height="1430"
    bbox="-98 -604 2021 2052"
    underline-thickness="0"
    underline-position="0"
    unicode-range="U+000A-2122"
  />
<missing-glyph horiz-adv-x="1079" 
d="M102 1434h875v-1434h-875v1434zM160 1393l379 -633l381 633h-760zM565 717l371 -621v1239zM514 717l-369 614v-1231zM541 674l-379 -631h758z" />
    <glyph glyph-name=".notdef" horiz-adv-x="1079" 
d="M102 1434h875v-1434h-875v1434zM160 1393l379 -633l381 633h-760zM565 717l371 -621v1239zM514 717l-369 614v-1231zM541 674l-379 -631h758z" />
    <glyph glyph-name="uni0000" horiz-adv-x="0" 
 />
    <glyph glyph-name="uni0000" horiz-adv-x="0" 
 />
    <glyph glyph-name="uni000D" unicode="&#xd;" horiz-adv-x="0" 
 />
    <glyph glyph-name="uni000A" unicode="&#xa;" horiz-adv-x="0" 
 />
    <glyph glyph-name="space" unicode=" " horiz-adv-x="395" 
 />
    <glyph glyph-name="exclam" unicode="!" horiz-adv-x="385" 
d="M203 213h-23l-61 1217h149zM193 160q38 0 64 -27t26 -65q0 -37 -26 -64t-64 -27q-37 0 -64 27t-27 64q0 38 27 65t64 27z" />
    <glyph glyph-name="quotedbl" unicode="&#x22;" horiz-adv-x="350" 
d="M178 1411q0 33 19.5 52.5t46.5 19.5t46 -20t19 -56q0 -40 -30.5 -87.5t-63.5 -70.5l-2 2q22 25 19.5 49t-14.5 38t-26 34.5t-14 38.5zM39 1411q0 33 19.5 52.5t45.5 19.5q27 0 46.5 -20t19.5 -56q0 -40 -30.5 -87.5t-63.5 -70.5l-2 2q23 25 20.5 49t-15 38t-26.5 34.5
t-14 38.5z" />
    <glyph glyph-name="numbersign" unicode="#" horiz-adv-x="1495" 
d="M1452 952h-389l-127 -473h375l-6 -18h-373l-123 -461h-23l123 461h-465l-125 -461h-20l123 461h-385l6 18h383l127 473h-369l6 17h367l125 461h20l-122 -461h467l122 461h23l-123 -461h389zM915 479l127 473h-467l-126 -473h466z" />
    <glyph glyph-name="dollar" unicode="$" horiz-adv-x="1177" 
d="M1094 438q0 -88 -28.5 -163t-77 -128t-113.5 -90t-139 -55t-152 -18v-197h-17v197q-169 5 -307.5 89.5t-193.5 237.5l55 25q54 -145 176.5 -226.5t269.5 -91.5v678q-73 29 -123 52t-108.5 59t-93.5 72.5t-58.5 88.5t-23.5 111q0 110 59 193.5t149.5 126t198.5 47.5v199
h17v-199q141 2 259.5 -64.5t168.5 -193.5l-49 -27q-55 122 -158.5 186.5t-220.5 69.5v-567q23 -9 71.5 -27t73.5 -28t69 -28.5t69 -31.5t60.5 -34t56 -39.5t44.5 -44t36.5 -52t21 -59t8.5 -68.5zM240 1171q0 -60 25 -108.5t74.5 -86t101 -63.5t126.5 -55v559
q-87 1 -161 -28.5t-120 -86.5t-46 -131zM584 16q67 -2 131 10.5t119 41.5t96.5 70t65.5 99t24 125q0 45 -24 85.5t-53.5 68t-92.5 60t-101.5 49t-121.5 48.5q-29 11 -43 17v-674z" />
    <glyph glyph-name="percent" unicode="%" horiz-adv-x="1126" 
d="M1059 1573h14l-1003 -1716h-15zM330 903q-63 0 -113.5 24t-81.5 63.5t-48 89.5t-17 102.5t17 102.5t48 89.5t81.5 63.5t113.5 24q62 0 112.5 -24t81.5 -63.5t47.5 -89.5t16.5 -102.5t-16.5 -102.5t-47.5 -89.5t-81.5 -63.5t-112.5 -24zM256 1440q-46 -12 -74 -50t-34 -88
t1 -107.5t31 -110t55.5 -93t75.5 -59t90 -6.5t74 50t34 88t-1 107.5t-31 110t-55.5 93t-75.5 59t-90 6.5zM799 528q63 0 113.5 -24t81.5 -63.5t48 -90t17 -103t-17 -103t-48 -90t-81.5 -63.5t-113.5 -24q-62 0 -112.5 24t-81.5 63.5t-47.5 90t-16.5 103t16.5 103t47.5 90
t81.5 63.5t112.5 24zM872 -10q46 13 74 51t34 88.5t-1 107.5t-31 109.5t-55.5 93t-75.5 59t-90 5.5q-46 -12 -74.5 -50t-34.5 -88t0.5 -107.5t31 -110t56 -93t76 -59t90.5 -6.5z" />
    <glyph glyph-name="ampersand" unicode="&#x26;" horiz-adv-x="1255" 
d="M991 889q79 -70 127 -171.5t58 -208t-24.5 -213.5t-113.5 -183q10 -133 -71 -263q25 99 -6 203q-140 -86 -349 -86q-134 0 -245 50.5t-178 130.5t-96.5 182t-13.5 201.5t86.5 193t188.5 152.5q-65 120 -65 233q0 83 26 149.5t69.5 107.5t96.5 63t109 22q110 0 190 -75.5
t80 -209.5h-14q-7 124 -74 189t-156 65q-90 0 -156.5 -62.5t-66.5 -166.5q0 -75 30.5 -153t81 -147.5t112 -140t126.5 -141.5t122 -139t101.5 -145.5t61.5 -149.5q116 119 119 303q2 115 -35 213.5t-127 190.5zM213 530q0 -96 27 -177t73 -138t107.5 -96.5t130 -58.5
t141.5 -19q138 0 250 65q-31 71 -88 150t-123.5 152.5t-133 145.5t-132 154t-105.5 154q-78 -66 -112.5 -144.5t-34.5 -187.5z" />
    <glyph glyph-name="quotesingle" unicode="'" horiz-adv-x="210" 
d="M39 1411q0 33 19.5 52.5t45.5 19.5q27 0 46.5 -20t19.5 -56q0 -40 -30.5 -87.5t-63.5 -70.5l-2 2q23 25 20.5 49t-15 38t-26.5 34.5t-14 38.5z" />
    <glyph glyph-name="parenleft" unicode="(" horiz-adv-x="489" 
d="M483 1548q-157 -274 -213 -605.5t-3 -656.5t208 -577l-12 -8q-241 275 -325.5 596t1 647.5t336.5 609.5z" />
    <glyph glyph-name="parenright" unicode=")" horiz-adv-x="489" 
d="M12 1554q251 -283 336.5 -609.5t1.5 -647.5t-325 -596l-13 8q155 252 208 577t-3 656.5t-213 605.5z" />
    <glyph glyph-name="asterisk" unicode="*" horiz-adv-x="382" 
d="M332 1190l-6 -12l-129 73v-147h-13v147l-127 -73l-8 12l127 74l-127 71l8 13l127 -72v145h13v-145l129 72l6 -13l-127 -71z" />
    <glyph glyph-name="plus" unicode="+" horiz-adv-x="735" 
d="M688 731v-33h-305v-305h-33v305h-305v33h305v305h33v-305h305z" />
    <glyph glyph-name="comma" unicode="," horiz-adv-x="243" 
d="M39 70q0 42 24.5 66t57.5 24t57.5 -24.5t24.5 -69.5q0 -50 -38 -110t-79 -89l-4 4q28 32 25 62t-18 47.5t-32.5 42.5t-17.5 47z" />
    <glyph glyph-name="hyphen" unicode="-" horiz-adv-x="497" 
d="M485 582h-473v22h473v-22z" />
    <glyph glyph-name="period" unicode="." horiz-adv-x="260" 
d="M129 160q38 0 64 -27t26 -65q0 -37 -26 -64t-64 -27q-37 0 -63.5 27t-26.5 64q0 38 26.5 65t63.5 27z" />
    <glyph glyph-name="slash" unicode="/" horiz-adv-x="987" 
d="M948 1509h21l-926 -1589h-23z" />
    <glyph glyph-name="zero" unicode="0" horiz-adv-x="1402" 
d="M700 1450q141 0 258.5 -59.5t194 -160.5t118.5 -232.5t42 -278.5q0 -117 -26 -225t-78.5 -199.5t-125 -159.5t-171.5 -106.5t-212 -38.5t-211 38.5t-170.5 106.5t-124.5 159.5t-78 199.5t-26 225q0 147 42 278.5t118 232.5t193 160.5t257 59.5zM211 883q1 -161 37 -299
t95.5 -234.5t137.5 -165t162 -101t168 -32.5q77 0 145 29t121 84.5t84 144t31 199.5q-1 167 -37.5 312.5t-97.5 248.5t-139 177.5t-163 110.5t-169 36q-77 0 -143.5 -31.5t-119 -93t-82.5 -160.5t-30 -225z" />
    <glyph glyph-name="one" unicode="1" horiz-adv-x="382" 
d="M121 1348l139 108l-2 -1456h-137v1348z" />
    <glyph glyph-name="two" unicode="2" horiz-adv-x="1038" 
d="M950 1049q0 -90 -42.5 -184.5t-106.5 -172.5t-152.5 -163t-167 -148t-165 -135t-132.5 -119h744v-125l-860 -2v12q14 35 63 89.5t115 117t143 136.5t150.5 159t134.5 173t98 189.5t37 198.5q0 148 -96.5 236t-233.5 88q-123 0 -233.5 -74t-173.5 -219l-15 6
q68 164 209 256t295 92q78 0 147.5 -25.5t124 -75t86 -129.5t31.5 -181z" />
    <glyph glyph-name="three" unicode="3" horiz-adv-x="1034" 
d="M434 870q112 0 203 -25.5t148.5 -67t97 -97t55.5 -111.5t16 -114q0 -115 -43.5 -210t-115.5 -155t-161 -92.5t-183 -32.5q-132 0 -241.5 61.5t-164.5 180.5l10 10q49 -98 145 -151.5t206 -53.5q76 0 146.5 27.5t128 80t92 138.5t34.5 193q0 103 -32.5 182t-88.5 126
t-125.5 71t-150.5 24v16l376 447h-653v113h746v-37z" />
    <glyph glyph-name="four" unicode="4" horiz-adv-x="1069" 
d="M1008 381v-113h-168v-268h-125v268h-672l535 1162h24l-473 -1014l-18 -35h604v618l125 123v-741h168z" />
    <glyph glyph-name="five" unicode="5" horiz-adv-x="1122" 
d="M164 758q46 126 160 197t251 71q88 0 167.5 -31.5t145.5 -92.5t105 -163.5t39 -232.5q0 -91 -29 -172t-79.5 -142t-116.5 -105.5t-142.5 -67.5t-154.5 -23q-130 0 -244.5 64t-187.5 192l12 6q61 -103 164.5 -160t216.5 -57q64 0 124 18t113 55.5t92 91.5t62 131t23 169
q0 111 -33.5 200.5t-89.5 144.5t-125 84.5t-143 29.5q-118 0 -212 -73t-122 -206l-15 2h-6l86 742h727v-111l-723 -2z" />
    <glyph glyph-name="six" unicode="6" horiz-adv-x="1171" 
d="M1092 569q8 -132 -28 -243t-103.5 -183.5t-155.5 -114.5t-187 -48q-232 -14 -378 155q-128 148 -148 383q-22 248 84 471q116 247 348 367q155 81 348 94v-18q-126 -7 -230 -55t-174 -121.5t-121 -172.5t-78.5 -200t-39.5 -213q49 176 164.5 267t255.5 91q81 0 157 -31
t137.5 -88t101.5 -145.5t47 -194.5zM236 477q13 -216 130 -345.5t261 -129.5q70 0 130.5 33t108 97.5t71 172t15.5 244.5q-6 105 -37 187t-79 132t-105.5 75.5t-120.5 25.5q-74 0 -143.5 -34t-123.5 -95t-84 -156t-23 -207z" />
    <glyph glyph-name="seven" unicode="7" horiz-adv-x="987" 
d="M932 1430v-15q-130 -81 -236 -234t-174.5 -343t-105.5 -405.5t-37 -432.5h-146q51 430 202 778.5t351 540.5h-772v111h918z" />
    <glyph glyph-name="eight" unicode="8" horiz-adv-x="1163" 
d="M715 797q63 -35 109.5 -64.5t96.5 -71t81.5 -84t52 -98t20.5 -117.5q0 -177 -147.5 -285t-392.5 -108q-107 3 -192.5 34.5t-139 81.5t-84.5 115t-35 134t16.5 139.5t63 131t111.5 109.5t155 74q-117 66 -181.5 148t-64.5 203q0 125 112.5 220.5t297.5 94.5h6
q95 0 170.5 -25t122 -66t72.5 -95t29 -111t-14 -115t-52 -106.5t-90 -85.5t-123 -53zM260 1194q0 -33 11.5 -64.5t27 -56.5t46.5 -53t55.5 -46.5t70 -45t73 -41t81.5 -42.5t80 -42q50 29 90.5 78.5t62.5 107t31 119.5t-7 119t-49.5 102.5t-98 73t-150.5 27.5
q-146 0 -235 -64.5t-89 -171.5zM569 -4q108 0 194.5 33.5t140.5 102.5t54 163q0 68 -24 125.5t-57.5 96.5t-92.5 79.5t-105 64t-120 60t-115 59.5q-62 -25 -112 -73t-81.5 -107.5t-46.5 -128t-12 -135t29 -128.5t70 -109t115.5 -75t162.5 -28z" />
    <glyph glyph-name="nine" unicode="9" horiz-adv-x="1171" 
d="M553 1448q232 14 378 -155q128 -149 148 -384q22 -247 -84 -471q-117 -245 -348 -365q-155 -80 -348 -93v16q126 7 230 55t174 121.5t121 172.5t78.5 200t39.5 213q-49 -176 -164 -266.5t-254 -90.5q-109 0 -205.5 52t-163 158.5t-75.5 248.5q-8 131 27.5 241.5
t103 183.5t155.5 115.5t187 47.5zM219 879q6 -105 37 -187t79 -131t105.5 -74.5t120.5 -25.5q74 0 143.5 33.5t124 94t84.5 155t23 206.5q-7 110 -43.5 202.5t-91.5 151t-121.5 91t-134.5 32.5q-70 0 -130.5 -33t-108 -98t-71.5 -172.5t-16 -244.5z" />
    <glyph glyph-name="colon" unicode=":" horiz-adv-x="301" 
d="M150 692q-37 0 -64 27t-27 65q0 37 27 63.5t64 26.5q38 0 64 -26.5t26 -63.5q0 -38 -26 -65t-64 -27zM150 301q-37 0 -64 26.5t-27 63.5q0 38 27 65t64 27q38 0 64 -27t26 -65q0 -37 -26 -63.5t-64 -26.5z" />
    <glyph glyph-name="semicolon" unicode=";" horiz-adv-x="309" 
d="M154 692q-37 0 -64 27t-27 65q0 37 27 63.5t64 26.5q38 0 64 -26.5t26 -63.5q0 -38 -26 -65t-64 -27zM72 393q0 42 24.5 66t57.5 24t57.5 -24.5t24.5 -69.5q0 -51 -37.5 -110t-79.5 -89l-4 3q21 28 24.5 51.5t-7 41.5t-23.5 34t-25 35.5t-12 37.5z" />
    <glyph glyph-name="less" unicode="&#x3c;" horiz-adv-x="294" 
d="M240 834l-93 -211l93 -211h-35l-152 211l152 211h35z" />
    <glyph glyph-name="equal" unicode="=" horiz-adv-x="479" 
d="M25 817h430v-33h-430v33zM25 612v31h430v-31h-430z" />
    <glyph glyph-name="greater" unicode="&#x3e;" horiz-adv-x="294" 
d="M90 834l150 -211l-150 -211h-37l92 211l-92 211h37z" />
    <glyph glyph-name="question" unicode="?" horiz-adv-x="903" 
d="M39 1171q66 136 182.5 206.5t245.5 70.5q154 0 262.5 -93.5t108.5 -252.5q0 -69 -18 -127.5t-48.5 -102t-70.5 -83t-83.5 -74.5t-87.5 -71t-84 -79t-70.5 -92t-48.5 -115.5t-18 -144.5h-16q0 107 23 197.5t59.5 154t81 118.5t89 103.5t81 96.5t59.5 108.5t23 128.5
q0 128 -87 206.5t-210 78.5q-104 0 -201.5 -60.5t-163.5 -181.5zM305 160q38 0 65 -27t27 -65q0 -37 -27 -64t-65 -27q-37 0 -63.5 27t-26.5 64q0 38 26.5 65t63.5 27z" />
    <glyph glyph-name="at" unicode="@" horiz-adv-x="1531" 
d="M694 1448q319 0 525 -202q165 -162 210 -405q45 -238 -42 -451q-90 -221 -290 -327q-154 -81 -352 -81q-314 0 -498 178q-141 137 -163 335q-21 192 76 351q106 173 310 232q89 26 192 26q164 0 246.5 -82.5t82.5 -222.5v-422h-4l-78 78v90q-23 -86 -85.5 -132
t-135.5 -46q-78 0 -133 49.5t-55 136.5q0 60 31 104.5t88 70.5t129 38.5t161 13.5v80q0 32 -10 65.5t-34.5 71t-77 61t-125.5 23.5q-261 0 -414 -160q-125 -130 -138 -317q-14 -189 92 -344q122 -180 356 -234q88 -20 187 -20q308 0 492 195q150 158 177 395q26 233 -76 440
q-105 214 -310 314q-149 73 -334 73q-227 0 -413 -135l-17 21q193 139 430 139zM578 565q0 -82 40.5 -126t100.5 -44q74 0 132 66t58 180v125q-97 2 -169 -16.5t-117 -65.5t-45 -119z" />
    <glyph glyph-name="A" unicode="A" horiz-adv-x="1050" 
d="M1042 0h-153l-156 432l-237 -301q-62 -78 -132.5 -117t-136.5 -39q-76 0 -129 47t-65.5 128.5t30.5 191.5l373 911l82 207zM559 244l166 211l-279 770l-321 -787q-38 -101 -24.5 -178.5t67 -124.5t127.5 -47q143 0 264 156z" />
    <glyph glyph-name="B" unicode="B" horiz-adv-x="1107" 
d="M553 823q33 -13 86 -31t89.5 -30.5t84 -32.5t79.5 -39.5t66 -50t54.5 -65t33.5 -82.5t13 -105q0 -171 -127 -279t-348 -108h-461v1430h330q230 0 344 -71.5t114 -228.5q0 -123 -92.5 -209.5t-265.5 -97.5zM784 1137q0 274 -331 274h-93q-59 -6 -77.5 -33.5t-20.5 -101.5
v-88q0 -76 20 -135.5t59.5 -101t84 -69.5t106.5 -53q74 5 133 51.5t89 114.5t30 142zM567 18q171 0 258.5 110.5t87.5 295.5q0 77 -30.5 136t-81 97t-112.5 68.5t-128.5 61t-125 64.5t-105.5 87.5t-68 122.5v-871q0 -42 1.5 -66t9 -46t18.5 -31.5t34 -17t51.5 -9.5t74.5 -2
h116z" />
    <glyph glyph-name="C" unicode="C" horiz-adv-x="1343" 
d="M1307 528l8 -2q-25 -133 -86.5 -239t-145.5 -172t-182 -100.5t-203 -34.5q-96 0 -186.5 28.5t-171 87.5t-141 143t-96 203t-35.5 258q0 154 37.5 280t102.5 212.5t154 146t190.5 86.5t213.5 27q222 0 434 -102l-31 -62q-217 127 -446 127q-119 0 -221.5 -37.5
t-180.5 -108.5t-122.5 -182.5t-44.5 -250.5q0 -188 52 -336t138.5 -237t192 -135t221.5 -46q193 0 349 119.5t200 326.5z" />
    <glyph glyph-name="D" unicode="D" horiz-adv-x="1341" 
d="M586 1430q149 -1 273.5 -51t205 -133t137 -191t68.5 -226.5t-0.5 -237t-68.5 -225.5t-136.5 -189t-205 -130t-273.5 -47h-463v1430h463zM586 18q118 0 216 47.5t162 128.5t108 185.5t54 220t0 231t-54 220t-108 185t-162 128t-216 47.5h-135q-46 0 -74.5 -2t-51.5 -9.5
t-34 -17t-18.5 -31.5t-9 -46t-1.5 -66v-1049q0 -42 1.5 -66t9 -46t18.5 -31.5t34 -17t51.5 -9.5t74.5 -2h135z" />
    <glyph glyph-name="E" unicode="E" horiz-adv-x="997" 
d="M123 0v1430h844v-19h-516q-119 0 -152.5 -22.5t-36.5 -108.5v-535h492v-18h-492v-577q3 -86 36.5 -109t152.5 -23h540v-18h-868z" />
    <glyph glyph-name="F" unicode="F" horiz-adv-x="958" 
d="M967 1430v-19h-516q-119 0 -152.5 -22.5t-36.5 -108.5v-637h492v-18h-492v-625h-139v1430h844z" />
    <glyph glyph-name="G" unicode="G" horiz-adv-x="1421" 
d="M1370 754v-25h-256q136 -38 201 -158q65 -118 28 -252q-42 -151 -192 -240q-156 -93 -393 -93q-100 0 -197.5 26t-188 83t-159 138.5t-109.5 202.5t-41 266q0 147 41.5 270.5t113 209.5t168.5 146.5t207 89t228 28.5q215 0 414 -94l-31 -64q-196 127 -424 127
q-119 0 -225 -38t-188 -109t-130.5 -182.5t-48.5 -247.5q0 -153 40 -287.5t107.5 -230t154 -165t181 -103.5t187.5 -34q185 0 288 132q83 108 79 253t-93 237q-87 89 -225 89v25h463z" />
    <glyph glyph-name="H" unicode="H" horiz-adv-x="1251" 
d="M989 1430h139v-1430h-139v680h-727v-680h-139v1430h139v-732h727v732z" />
    <glyph glyph-name="I" unicode="I" horiz-adv-x="385" 
d="M262 0h-139v1430h139v-1430z" />
    <glyph glyph-name="J" unicode="J" horiz-adv-x="385" 
d="M262 334v-33v-61t-1.5 -57t-5 -57t-10.5 -51t-16.5 -49t-25 -41t-35.5 -37t-47 -27t-60 -21l-4 10q25 14 41 61t21.5 125.5t6.5 120t1 117.5v1096h135v-1096z" />
    <glyph glyph-name="K" unicode="K" horiz-adv-x="1101" 
d="M260 0h-137v1430h137v-1430zM1102 0h-189l-589 692l700 738h33l-625 -656z" />
    <glyph glyph-name="L" unicode="L" horiz-adv-x="1009" 
d="M123 0v1430h139v-1240q0 -42 1.5 -66t9 -46t18.5 -31.5t34 -17t51.5 -9.5t74.5 -2h571v-18h-899z" />
    <glyph glyph-name="M" unicode="M" horiz-adv-x="1499" 
d="M1243 1430h131v-1430h-149v1327q-178 -474 -396 -1040q-56 -148 -168 -230t-233 -82q-133 0 -223 97.5t-90 279.5v1078h104l578 -1151q19 35 26 57q182 477 420 1094zM137 518q0 -102 30 -184t81 -132.5t113.5 -77t130.5 -26.5q104 0 192 60l-547 1087v-727z" />
    <glyph glyph-name="N" unicode="N" horiz-adv-x="1193" 
d="M1047 1430h22v-1457h-22l-902 1289v-1262h-22v1430h76l848 -1199v1199z" />
    <glyph glyph-name="O" unicode="O" 
d="M752 1460q158 0 290 -60.5t218.5 -163t134 -237.5t47.5 -284t-47.5 -283.5t-134 -237.5t-218.5 -164t-290 -61t-290 61t-218 164t-133.5 237.5t-47.5 283.5t47.5 283.5t133.5 237.5t218 163.5t290 60.5zM872 27q227 -7 345 170q105 156 95 398q-11 245 -131 454
q-129 224 -334 309q-99 41 -210 45q-222 8 -343 -167q-107 -154 -101 -394q5 -245 122 -454q127 -225 335 -313q105 -44 222 -48z" />
    <glyph glyph-name="P" unicode="P" horiz-adv-x="1140" 
d="M530 1430q287 0 425.5 -122t138.5 -352q0 -95 -24.5 -175.5t-66 -137.5t-97.5 -97.5t-118.5 -59.5t-128.5 -19q-127 0 -234.5 69t-162.5 199v-735h-139v1430h407zM262 772q52 -114 145 -175.5t197 -61.5q67 0 127 26t108 76t76.5 131t28.5 182q0 238 -109.5 349.5
t-304.5 111.5h-170q-65 -7 -81.5 -39.5t-16.5 -128.5v-471z" />
    <glyph glyph-name="Q" unicode="Q" 
d="M1442 715q0 -160 -52.5 -301.5t-156.5 -249t-246 -156.5q26 -65 42 -118.5t25 -114t2.5 -109.5t-32.5 -97t-72 -85h-4q18 16 29.5 35.5t14.5 44t4 46.5t-6.5 54.5t-13.5 55.5t-21.5 63t-24.5 62.5t-28 67.5t-28 67q-71 -11 -122 -11q-158 0 -290 61t-218 164
t-133.5 237.5t-47.5 283.5t47.5 283.5t133.5 237.5t218 163.5t290 60.5t290 -60.5t218.5 -163t134 -237.5t47.5 -284zM977 35q186 37 274 222q85 178 53 423q-32 250 -170 442q-157 219 -391 268q-52 11 -106 13q-222 8 -343 -166q-107 -154 -102 -394q5 -244 122 -454
q126 -224 334 -312q98 -42 208 -48q-30 75 -46 135t-22 126.5t13 124.5t63 105l2 -2q-15 -19 -21.5 -43.5t-2.5 -57.5t10.5 -62.5t23.5 -74.5t30 -76.5t35.5 -84.5t35.5 -84z" />
    <glyph glyph-name="R" unicode="R" horiz-adv-x="1214" 
d="M436 528q148 -175 346.5 -317.5t436.5 -210.5h-295q-58 0 -163 90t-205.5 211.5t-184 244.5t-109.5 189v-735h-139v1430h407q287 0 425.5 -122t138.5 -352q0 -95 -24.5 -175.5t-66 -137.5t-97.5 -97.5t-118.5 -59.5t-128.5 -19q-122 0 -223 61zM262 1243v-471
q52 -114 145 -175.5t197 -61.5q67 0 127 26t108 76t76.5 131t28.5 182q0 238 -109.5 349.5t-304.5 111.5h-170q-65 -7 -81.5 -39.5t-16.5 -128.5z" />
    <glyph glyph-name="S" unicode="S" horiz-adv-x="1118" 
d="M209 1182q0 -62 29 -113.5t78.5 -87.5t113.5 -67t135 -57.5l142 -53t135 -60t113.5 -72.5t78.5 -95.5t29 -124.5q0 -88 -28.5 -163t-77 -128t-114 -90.5t-139.5 -55.5t-153 -18q-111 0 -212.5 35.5t-183.5 110.5t-120 180l55 24q38 -104 117 -177.5t172.5 -106.5
t195.5 -33q110 0 202.5 38.5t152 118.5t59.5 187q0 68 -47.5 122.5t-123.5 92.5t-167.5 73.5t-183 74t-167.5 84t-123.5 115t-47.5 155.5q0 87 37 158t98 115.5t137.5 68.5t159.5 24q139 0 255 -66t165 -192l-49 -24q-57 127 -166.5 191.5t-233.5 64.5q-133 0 -228 -69
t-95 -179z" />
    <glyph glyph-name="T" unicode="T" horiz-adv-x="989" 
d="M1001 1430v-19h-438v-1411h-137v1411h-438v19h1013z" />
    <glyph glyph-name="U" unicode="U" horiz-adv-x="1226" 
d="M1122 555q1 -109 -27 -201.5t-76.5 -157.5t-114 -111.5t-139 -68.5t-151.5 -22q-98 0 -188.5 36t-163 104t-116 177t-42.5 244v875h136v-875q0 -120 35 -215.5t93.5 -153.5t131.5 -88t153 -30q83 0 162 32t142.5 91.5t102 154t38.5 209.5v875h24v-875z" />
    <glyph glyph-name="V" unicode="V" horiz-adv-x="1050" 
d="M555 1303q62 79 132 118t136 39q76 0 129 -46.5t65 -128t-30 -191.5l-455 -1119l-524 1459h152l157 -433zM926 997q38 101 25 179t-66.5 125t-128.5 47q-65 0 -134.5 -39t-132.5 -119l-163 -211l278 -770z" />
    <glyph glyph-name="W" unicode="W" horiz-adv-x="1656" 
d="M1044 1229q51 121 136.5 182.5t179.5 61.5q92 0 162.5 -55t93 -151.5t-28.5 -228.5l-432 -1063l-285 793l-338 -793l-524 1459h152l446 -1231l254 596l-229 635h153l158 -441zM1526 940q45 120 26.5 212t-82 147t-147.5 55q-88 0 -172.5 -67t-142.5 -202l-54 -122
l273 -754z" />
    <glyph glyph-name="X" unicode="X" horiz-adv-x="1085" 
d="M1077 0h-162l-415 659l-437 -659h-32l452 686l-469 744h170l391 -627l414 627h33l-430 -654z" />
    <glyph glyph-name="Y" unicode="Y" horiz-adv-x="1056" 
d="M623 649l2 -6h-2v-643h-138v643h-2l-487 787h156l460 -730l422 730h25l-436 -756v-25z" />
    <glyph glyph-name="Z" unicode="Z" horiz-adv-x="958" 
d="M172 18h772v-18h-930v18l742 1393h-707v19h873v-19z" />
    <glyph glyph-name="bracketleft" unicode="[" horiz-adv-x="278" 
d="M156 -178h139v-17h-172v1698h172v-18h-139v-1663z" />
    <glyph glyph-name="backslash" unicode="\" horiz-adv-x="987" 
d="M37 1509l928 -1589h-21l-928 1589h21z" />
    <glyph glyph-name="bracketright" unicode="]" horiz-adv-x="278" 
d="M-16 1503h172v-1698h-172v17h139v1663h-139v18z" />
    <glyph glyph-name="underscore" unicode="_" horiz-adv-x="708" 
d="M709 -20h-709v24h709v-24z" />
    <glyph glyph-name="a" unicode="a" horiz-adv-x="980" 
d="M874 700v-702h-8l-127 129v152q-39 -143 -142.5 -220t-225.5 -77q-129 0 -221.5 82.5t-92.5 226.5q0 100 52 174.5t147 118t215 64t268 20.5v133q0 134 -82 207t-202 73q-84 0 -165 -38.5t-138 -108.5l-21 18q66 78 172 127t213 49q73 0 135 -24t113 -73t80.5 -134
t29.5 -197zM188 309q0 -134 68 -208t166 -74q58 0 113.5 26.5t101.5 76t74 129.5t28 177v209q-96 2 -177 -8t-151 -35t-119 -64t-76.5 -97t-27.5 -132z" />
    <glyph glyph-name="b" unicode="b" horiz-adv-x="1216" 
d="M252 762q44 173 168 268.5t274 95.5q86 0 165.5 -34t144 -98.5t103 -170.5t38.5 -239q0 -125 -33 -227.5t-88 -170.5t-128 -114.5t-150 -67t-158 -20.5q-55 0 -104.5 12t-79.5 26.5t-67 26.5t-69 12q-86 0 -153 -61v1620l137 78v-936zM252 412q0 -96 28 -174.5t76 -127
t108 -74.5t126 -26q76 0 147 33t129 95t93.5 163t35.5 225q0 142 -29 251t-78.5 173t-110.5 95.5t-130 31.5q-73 0 -143.5 -34.5t-126.5 -94.5t-90.5 -149.5t-34.5 -192.5v-194z" />
    <glyph glyph-name="c" unicode="c" horiz-adv-x="1163" 
d="M1112 403l6 -2q-26 -135 -108.5 -234t-190.5 -145.5t-229 -46.5q-101 0 -192.5 35.5t-166 102.5t-119 177t-44.5 247q0 140 49.5 254.5t131.5 185.5t182.5 109t207.5 38q131 0 245 -56.5t181 -162.5l-72 -53q-71 111 -184.5 170t-235.5 59q-80 0 -151 -26t-127.5 -74.5
t-89.5 -126t-33 -174.5q0 -147 43.5 -267t116 -194t161.5 -113.5t185 -39.5q144 0 263 87t171 250z" />
    <glyph glyph-name="d" unicode="d" horiz-adv-x="1208" 
d="M954 1620l138 78v-1710h-9l-129 129v280q-30 -133 -105.5 -230.5t-169.5 -143.5t-196 -46q-82 0 -155 32t-132 93t-93.5 160t-34.5 223q0 123 33.5 228t90 178t130.5 124.5t154.5 76t162.5 24.5q198 0 315 -129v633zM954 563v0v0v0v1v0v0v1v0v1v1v0v1v1v1v1v1v1v1v1v1v1
v1v1v1v1v1v1v1v1v1v1v1v1v1v1v1v1v1v1v1v2v1v1v1v1v1v1v1v1v2v1v1v1v1v1v2v1v1v1v2v1v1v1v2v1v1v2v1v1v2v1v1v2v1v2v1v1v2v1v2v1v2v1v1v2v1v2v1v2v1v2v2v1v2v1v2v1v2v1v2v2v1v2v1v2v2v1v2v2v1v2v2v1v2v2v1v2v2v2v1v2v2v1v2v2v2v2v1v2v2v2v1v2v2v2v2v2v1v10
q0 148 -109.5 235.5t-260.5 87.5q-81 0 -156 -28t-137 -82t-99.5 -145t-37.5 -206q0 -133 33.5 -238.5t90.5 -169.5t126.5 -97t146.5 -33t148.5 32.5t128.5 92t91.5 154t34.5 208.5z" />
    <glyph glyph-name="e" unicode="e" horiz-adv-x="1114" 
d="M1061 424l6 -2q-17 -86 -54 -159t-86.5 -124.5t-110.5 -87.5t-126 -53.5t-133 -17.5q-75 0 -145 21.5t-132.5 67t-109 110t-73.5 156t-27 200.5q0 121 30 220t80 165.5t117 112t139 65.5t148 20q107 0 199 -38.5t150 -113t58 -169.5l-821 2q-12 -58 -12 -105
q0 -153 38 -270.5t103.5 -186.5t144 -103t166.5 -34q150 0 279.5 90t171.5 234zM836 883q0 95 -79.5 152t-193.5 57q-120 0 -228 -69t-159 -202l590 2q43 0 56.5 13t13.5 47z" />
    <glyph glyph-name="f" unicode="f" horiz-adv-x="559" 
d="M553 1645q-110 0 -172 -84t-62 -199v-254h234v-18h-234v-1090h-137v1090h-162v18h162v88q0 463 371 463v-14z" />
    <glyph glyph-name="g" unicode="g" horiz-adv-x="1073" 
d="M594 90q95 3 165 -1.5t134.5 -20.5t104.5 -45t63.5 -78t23.5 -117q0 -88 -46.5 -164.5t-135 -136t-229.5 -93.5t-318 -34v18q69 0 145.5 8t166.5 30.5t160.5 56.5t117.5 93t47 134q0 133 -93 184.5t-306 42.5q-32 0 -93 1t-89 1q-246 0 -246 152q0 54 55.5 96t153.5 51
q-139 36 -224 143t-85 275q0 106 36.5 190t99.5 136.5t143.5 80t172.5 27.5l479 33l-6 -57l-346 10q142 -34 230 -142t88 -278q0 -106 -36 -190.5t-98.5 -137.5t-143 -80.5t-171.5 -27.5q-22 0 -68 4q-96 -3 -152 -24.5t-56 -55.5q0 -44 54.5 -66t131.5 -22q36 0 95 2t75 2z
M422 1087q-166 -29 -221 -177q-49 -132 5 -300q51 -158 161 -252q117 -99 251 -75q155 27 207 173q48 132 -3 302q-49 161 -157 255q-113 97 -243 74z" />
    <glyph glyph-name="h" unicode="h" horiz-adv-x="1107" 
d="M1004 731h2v-731h-138v731q0 158 -86 245t-207 87q-60 0 -117 -24t-103.5 -67.5t-74.5 -114t-28 -155.5v-702h-137v1620l137 78v-838q44 121 149.5 187.5t229.5 66.5q72 0 138 -24t119 -70t84.5 -121t31.5 -168z" />
    <glyph glyph-name="i" unicode="i" horiz-adv-x="364" 
d="M266 1427q0 -32 -21 -64.5t-65 -84.5q-30 37 -43.5 55t-27 45t-13.5 49q0 35 25 60.5t59 25.5q35 0 60.5 -25.5t25.5 -60.5zM113 0v1040l137 76v-1116h-137z" />
    <glyph glyph-name="j" unicode="j" horiz-adv-x="366" 
d="M266 1427q0 -32 -21 -65.5t-63 -83.5q-29 34 -44.5 54t-28.5 46.5t-13 48.5q0 35 25.5 60.5t60.5 25.5t59.5 -25.5t24.5 -60.5zM250 1116v-1096v-33v-61t-1.5 -57t-5 -57t-10.5 -51t-16.5 -49t-25 -41t-35.5 -37t-47 -27t-60 -21l-4 11q25 14 41 61t21.5 125t6.5 119.5
t1 117.5v1020z" />
    <glyph glyph-name="k" unicode="k" horiz-adv-x="972" 
d="M778 0l-448 510l-78 -82v-428h-137v1620l137 78v-1231l602 637h37l-469 -496l543 -608h-187z" />
    <glyph glyph-name="l" unicode="l" horiz-adv-x="366" 
d="M115 1620l137 78v-1698h-137v1620z" />
    <glyph glyph-name="m" unicode="m" horiz-adv-x="1753" 
d="M1649 731h2v-731h-138v731q0 158 -78.5 245t-189.5 87q-112 0 -199 -89t-96 -243v-731h-137v731q0 158 -78.5 245t-189.5 87q-118 0 -207.5 -97t-89.5 -264v-702h-137v987l137 117v-240q41 118 139.5 184t212.5 66q121 0 215.5 -72.5t122.5 -207.5q37 132 138.5 206
t223.5 74q67 0 129 -24t111.5 -70t79 -121t29.5 -168z" />
    <glyph glyph-name="n" unicode="n" horiz-adv-x="1103" 
d="M999 731h2v-731h-137v731q0 158 -86 245t-207 87q-60 0 -117 -24t-103.5 -67.5t-74.5 -114t-28 -155.5v-702h-137v987l137 117v-244q44 121 149.5 187.5t229.5 66.5q72 0 137.5 -24t118.5 -70t84.5 -121t31.5 -168z" />
    <glyph glyph-name="o" unicode="o" horiz-adv-x="1185" 
d="M592 1116q122 0 223 -46t167 -125t102 -181.5t36 -216.5q0 -113 -36 -215.5t-102 -181t-167 -124.5t-223 -46q-121 0 -221.5 46t-166.5 124.5t-102 181t-36 215.5q0 114 36 216.5t102 181.5t166.5 125t221.5 46zM188 670q-2 -125 26 -231.5t76 -181t111 -127.5t131.5 -78
t137.5 -25q135 0 228.5 94t96.5 264q2 128 -26 240.5t-77 192t-113 137.5t-133.5 86t-139.5 28q-133 0 -223.5 -102.5t-94.5 -296.5z" />
    <glyph glyph-name="p" unicode="p" horiz-adv-x="1216" 
d="M250 770q41 170 156.5 260t259.5 90q90 0 174.5 -36t153 -101.5t110 -169t41.5 -227.5q0 -129 -31.5 -235t-83.5 -176t-122 -118t-144.5 -69t-153.5 -21q-111 0 -208.5 41t-151.5 111v-721h-137v1642l137 76v-346zM250 428q0 -102 30.5 -185.5t81 -135.5t114 -80.5
t132.5 -28.5q73 0 140.5 32t123 93t88.5 161t33 226q0 140 -31 249t-83.5 173.5t-116.5 97.5t-135 33t-138.5 -32t-120.5 -88.5t-85.5 -143.5t-32.5 -189v-182z" />
    <glyph glyph-name="q" unicode="q" horiz-adv-x="1218" 
d="M967 1038l135 76v-1718h-135v919q-28 -115 -94 -195.5t-148 -117.5t-176 -37q-90 0 -174.5 36t-153 101.5t-110 169.5t-41.5 228q0 129 31.5 235t83.5 176t122 117.5t145 68.5t154 21q111 0 208.5 -40.5t152.5 -110.5v71zM967 477v182q0 102 -30.5 185t-81 135t-114.5 80
t-133 28q-73 0 -140.5 -32t-123 -93t-88.5 -161t-33 -226q0 -140 31 -248.5t84 -172.5t117 -96.5t135 -32.5t138.5 31.5t120.5 88t85.5 143t32.5 189.5z" />
    <glyph glyph-name="r" unicode="r" horiz-adv-x="618" 
d="M250 815q40 132 139.5 218.5t228.5 82.5l-26 -61q-76 2 -136.5 -22.5t-98 -65t-62.5 -94.5t-35 -106t-10 -105v-662h-137v1040l137 76v-301z" />
    <glyph glyph-name="s" unicode="s" horiz-adv-x="890" 
d="M209 930q0 -62 34.5 -112t90 -83.5t122 -64t133.5 -62t122.5 -67.5t90 -90.5t34.5 -122.5q0 -86 -33.5 -155.5t-89.5 -112.5t-125.5 -66t-145.5 -23q-133 0 -245 67t-154 189l57 21q44 -123 147 -191.5t218 -68.5q118 0 199 72.5t81 205.5q0 47 -27 86.5t-71 68
t-100.5 57t-115.5 52.5t-115.5 56t-100.5 66.5t-71 85t-27 110.5q0 84 45.5 147.5t115.5 94t152 30.5q105 0 194.5 -53.5t127.5 -153.5l-62 -18q-38 102 -116 155.5t-164 53.5q-84 0 -142.5 -47t-58.5 -127z" />
    <glyph glyph-name="t" unicode="t" horiz-adv-x="530" 
d="M283 287q0 -115 62 -199t171 -84v-14q-371 0 -371 463v632h-110v19h110v172l138 78v-250h184v-19h-184v-798z" />
    <glyph glyph-name="u" unicode="u" horiz-adv-x="1105" 
d="M854 1040l137 76v-1116l-137 51v289q-31 -174 -141.5 -268.5t-247.5 -94.5q-70 0 -135 26.5t-116.5 76t-82.5 128.5t-31 175v657l138 76v-733q0 -145 87 -233.5t205 -88.5q61 0 117.5 27.5t103.5 81t75 145.5t28 209v516z" />
    <glyph glyph-name="v" unicode="v" horiz-adv-x="968" 
d="M922 1104h30l-448 -1104h-37l-451 1104h152l381 -918z" />
    <glyph glyph-name="w" unicode="w" horiz-adv-x="1495" 
d="M1448 1104h31l-449 -1104h-37l-245 602l-244 -602h-37l-451 1104h152l381 -918l184 453l-190 465h151l115 -277l113 277h30l-127 -313l250 -605z" />
    <glyph glyph-name="x" unicode="x" horiz-adv-x="872" 
d="M844 0h-144l-303 496l-321 -496h-29l336 518l-360 586h151l299 -492l318 492h28l-334 -514z" />
    <glyph glyph-name="y" unicode="y" horiz-adv-x="913" 
d="M866 1104h31l-418 -1032q-8 -18 -23 -57q-27 -69 -44 -106t-50.5 -100.5t-69.5 -99.5t-87 -75.5t-118 -57.5t-148 -18v22q52 1 99.5 11.5t84 26t71 40.5t59 49t49 58.5t40 61t33 65.5t27 63t23.5 61.5t21 53.5q2 5 10 24.5t13 28.5l-457 981h152l375 -805
q63 156 166.5 410t160.5 395z" />
    <glyph glyph-name="z" unicode="z" horiz-adv-x="864" 
d="M840 1108v-21l-650 -1062h623v-25h-790v23l655 1060h-612v25h774z" />
    <glyph glyph-name="braceleft" unicode="{" horiz-adv-x="393" 
d="M336 1532q-40 0 -54 -61.5t-14 -186.5v-461q0 -15 -3 -34.5t-11 -49t-28.5 -53.5t-49.5 -33q92 -27 92 -168v-462q0 -133 11.5 -189.5t56.5 -56.5v-15q-176 0 -176 263v485q0 75 -13 101q-16 31 -53 34v19q23 2 38 15t20 36.5t6.5 39.5t1.5 42v487q0 57 8 101t27 81.5
t54.5 57.5t86.5 20v-12z" />
    <glyph glyph-name="bar" unicode="|" horiz-adv-x="264" 
d="M141 -213h-18v1858h18v-1858z" />
    <glyph glyph-name="braceright" unicode="}" horiz-adv-x="393" 
d="M231 797q0 -26 1.5 -42t6.5 -39.5t20 -36.5t38 -15v-19q-16 -1 -28.5 -7.5t-19 -19.5t-11 -23t-6 -29.5t-1.5 -27.5v-28v-485q0 -263 -176 -263v15q45 0 56.5 56.5t11.5 189.5v462q0 141 92 168q-29 9 -49.5 33t-28.5 53.5t-11 49t-3 34.5v461q0 125 -14 186.5t-54 61.5
v12q51 0 86.5 -20t54.5 -57.5t27 -81.5t8 -101v-487z" />
    <glyph glyph-name="uni00A0" unicode="&#xa0;" horiz-adv-x="610" 
 />
    <glyph glyph-name="exclamdown" unicode="&#xa1;" horiz-adv-x="354" 
d="M176 934q-37 0 -63.5 27t-26.5 65q0 37 26.5 63.5t63.5 26.5q38 0 64 -26.5t26 -63.5q0 -38 -26 -65t-64 -27zM168 881h20l64 -1217h-150z" />
    <glyph glyph-name="cent" unicode="&#xa2;" horiz-adv-x="1200" 
d="M1133 408q-26 -133 -106.5 -230.5t-186 -145t-224.5 -50.5v-179h-18v179q-79 1 -153.5 23t-140.5 67.5t-115.5 110t-78 157t-28.5 201.5q0 131 43.5 239.5t116.5 179t164 112.5t192 52v150h18v-148q141 9 266.5 -46t196.5 -169l-71 -55q-67 105 -172 164t-220 65v-1009
q163 -26 307 61t203 271h7zM186 686q0 -129 33.5 -237.5t91.5 -182.5t131 -121t156 -65v1007q-110 2 -201.5 -41t-151 -136.5t-59.5 -223.5z" />
    <glyph glyph-name="sterling" unicode="&#xa3;" horiz-adv-x="962" 
d="M307 125h600v-125h-862q122 35 176.5 140t54.5 325v242h-178v20h178v391q0 77 24 139.5t64.5 101t90.5 59t104 20.5q63 0 120.5 -28.5t96.5 -82.5l-12 -10q-73 82 -164 82q-79 0 -131.5 -70.5t-52.5 -210.5v-391h375v-20h-375v-242q0 -218 -109 -340z" />
    <glyph glyph-name="yen" unicode="&#xa5;" horiz-adv-x="1175" 
d="M676 674v-19h368v-20h-368v-260h368v-19h-368v-356h-137v356h-369v19h369v260h-369v20h358l-479 775h156l461 -730l421 730h25z" />
    <glyph glyph-name="section" unicode="&#xa7;" horiz-adv-x="1236" 
d="M1161 655q0 -143 -86 -233t-217 -115q-2 -83 -36 -150t-89.5 -108.5t-124 -63.5t-143.5 -22q-133 0 -245 67t-154 189l57 21q44 -122 146.5 -190t217.5 -68q118 0 199.5 72.5t81.5 205.5q0 53 -34.5 96.5t-90 75.5t-123 61.5t-134.5 62t-122.5 70t-90 92.5t-34.5 122
q0 126 92 198t220 74q-9 30 -9 64q0 84 45.5 147.5t116 94t152.5 30.5q105 0 194 -53.5t127 -153.5l-61 -16q-38 101 -116.5 154t-164.5 53q-83 0 -141.5 -46.5t-58.5 -125.5q0 -62 34.5 -112t89.5 -84t122 -64.5t134 -62.5t122 -68.5t89.5 -91t34.5 -122.5zM858 324
q95 20 154 89.5t59 182.5q0 48 -29 89t-76.5 70.5t-106 57t-121.5 56t-118 59t-99.5 73.5t-63.5 93q-92 8 -158.5 -38.5t-67.5 -131.5q0 -62 34.5 -112t89 -84t121 -64t133.5 -61.5t122 -67.5t90.5 -90t36.5 -121z" />
    <glyph glyph-name="dieresis" unicode="&#xa8;" horiz-adv-x="434" 
d="M102 1376q28 0 48 -19.5t20 -47.5t-20 -48t-48 -20t-47.5 20t-19.5 48t19.5 47.5t47.5 19.5zM332 1376q28 0 46.5 -19.5t18.5 -47.5t-19 -48t-46 -20q-29 0 -48.5 20t-19.5 48t19.5 47.5t48.5 19.5z" />
    <glyph glyph-name="copyright" unicode="&#xa9;" horiz-adv-x="1640" 
d="M819 1450q201 0 370.5 -98.5t268 -267.5t98.5 -369q0 -150 -58 -286.5t-157 -234.5t-235.5 -156t-286.5 -58q-200 0 -369 98t-267.5 267t-98.5 370q0 200 98.5 369t267.5 267.5t369 98.5zM819 12q191 0 353 94t256 256t94 353q0 143 -55.5 272.5t-149.5 224t-224.5 150
t-273.5 55.5q-114 0 -221 -35.5t-193.5 -100.5t-151.5 -151.5t-100.5 -193.5t-35.5 -221q0 -143 55.5 -273.5t150 -224.5t224 -149.5t272.5 -55.5zM471 815q0 -115 34 -211.5t90.5 -158t127 -95t145.5 -33.5q110 0 202 72.5t136 212.5l4 -2q-31 -154 -146.5 -241t-258.5 -87
q-78 0 -149 27.5t-128 79.5t-91 136.5t-34 189.5q0 108 38.5 196t102 142t141 83t159.5 29q100 0 187 -42.5t138 -123.5l-55 -43q-55 86 -143 131t-185 45q-132 0 -223.5 -80.5t-91.5 -226.5z" />
    <glyph glyph-name="ordfeminine" unicode="&#xaa;" horiz-adv-x="452" 
d="M88 1270q25 29 67.5 47t86.5 18q62 0 103.5 -40t41.5 -124v-268h-4l-61 49v58q-16 -56 -56 -85.5t-86 -29.5q-50 0 -85.5 32.5t-35.5 88.5q0 74 72 108.5t191 34.5v51q0 51 -31.5 79t-77.5 28q-74 0 -117 -55zM123 1022q0 -47 24.5 -73.5t59.5 -26.5q46 0 80.5 41.5
t34.5 117.5v70q-199 3 -199 -129z" />
    <glyph glyph-name="guillemotleft" unicode="&#xab;" horiz-adv-x="423" 
d="M240 834l-93 -211l93 -211h-35l-152 211l152 211h35zM371 834l-92 -211l92 -211h-37l-152 211l152 211h37z" />
    <glyph glyph-name="uni00AD" unicode="&#xad;" horiz-adv-x="0" 
 />
    <glyph glyph-name="registered" unicode="&#xae;" horiz-adv-x="1640" 
d="M819 1450q201 0 370.5 -98.5t268 -267.5t98.5 -369q0 -150 -58 -286.5t-157 -234.5t-235.5 -156t-286.5 -58q-200 0 -369 98t-267.5 267t-98.5 370q0 200 98.5 369t267.5 267.5t369 98.5zM819 12q191 0 353 94t256 256t94 353q0 143 -55.5 272.5t-149.5 224t-224.5 150
t-273.5 55.5q-114 0 -221 -35.5t-193.5 -100.5t-151.5 -151.5t-100.5 -193.5t-35.5 -221q0 -143 55.5 -273.5t150 -224.5t224 -149.5t272.5 -55.5zM758 604q204 -238 465 -313h-176q-61 0 -179 135.5t-188 255.5q-8 12 -25 45v-436h-82v846h242q332 0 332 -281
q0 -136 -76.5 -212.5t-179.5 -76.5q-72 0 -133 37zM655 1028v-280q31 -67 86.5 -103.5t116.5 -36.5q83 0 142 64t59 182q0 272 -244 272h-100q-38 -4 -49 -23.5t-11 -74.5z" />
    <glyph glyph-name="degree" unicode="&#xb0;" horiz-adv-x="425" 
d="M213 1450q66 0 114 -47t48 -113q0 -67 -48 -114.5t-114 -47.5q-67 0 -114.5 47t-47.5 115q0 66 47.5 113t114.5 47zM213 1165q51 0 88 36.5t37 88.5q0 51 -37 87t-88 36q-52 0 -88.5 -36t-36.5 -87q0 -52 36 -88.5t89 -36.5z" />
    <glyph glyph-name="twosuperior" unicode="&#xb2;" horiz-adv-x="460" 
d="M393 1294q0 -50 -32 -101t-69.5 -83.5t-92 -76.5t-76.5 -66h266v-70h-334v4q8 21 53 69.5t92 98t85.5 118.5t38.5 130q0 48 -34 79t-83 31q-82 0 -137 -81l-9 6q67 102 172 102q66 0 113 -44.5t47 -115.5z" />
    <glyph glyph-name="threesuperior" unicode="&#xb3;" horiz-adv-x="518" 
d="M244 1241q104 0 155.5 -52t51.5 -116q0 -88 -62 -138t-145 -50q-62 0 -113.5 29t-75.5 85l6 5q23 -46 66 -71.5t90 -25.5q65 0 111.5 43.5t46.5 120.5t-45 117.5t-111 40.5v6l160 151h-277v66h308v-51z" />
    <glyph glyph-name="periodcentered" unicode="&#xb7;" horiz-adv-x="264" 
d="M131 713q38 0 64 -26t26 -64q0 -37 -26 -64t-64 -27q-37 0 -63.5 27t-26.5 64q0 38 26.5 64t63.5 26z" />
    <glyph glyph-name="cedilla" unicode="&#xb8;" horiz-adv-x="61" 
d="M-4 -125q135 16 197.5 -38.5t62.5 -149.5q0 -84 -58 -142.5t-151 -58.5q-71 0 -145 35v92q76 -88 155 -88q48 0 78.5 37.5t30.5 109.5q0 91 -53.5 135t-153.5 31l-10 12l74 173l26 -3z" />
    <glyph glyph-name="onesuperior" unicode="&#xb9;" horiz-adv-x="223" 
d="M74 1413l73 51v-567h-73v516z" />
    <glyph glyph-name="ordmasculine" unicode="&#xba;" horiz-adv-x="643" 
d="M322 1464q61 0 110.5 -25t80 -65.5t47 -92t16.5 -106t-16.5 -106t-47 -92t-80 -65.5t-110.5 -25t-110.5 25t-80 65.5t-47 92t-16.5 106t16.5 106t47 92t80 65.5t110.5 25zM358 903q106 -4 134 130.5t-33.5 272t-173.5 142.5q-103 4 -134 -130t29.5 -271.5t177.5 -143.5z
" />
    <glyph glyph-name="guillemotright" unicode="&#xbb;" horiz-adv-x="423" 
d="M90 834l150 -211l-150 -211h-37l92 211l-92 211h37zM219 834l152 -211l-152 -211h-37l94 211l-94 211h37z" />
    <glyph glyph-name="questiondown" unicode="&#xbf;" horiz-adv-x="714" 
d="M573 934q-38 0 -65 27t-27 65q0 37 27 63.5t65 26.5q37 0 64 -26.5t27 -63.5q0 -38 -27 -65t-64 -27zM831 -70l9 -8q-66 -136 -182.5 -206t-245.5 -70q-154 0 -262.5 93.5t-108.5 252.5q0 69 18 127.5t48.5 102t70 83t83.5 74.5t88 71t83.5 79t70 92t48.5 115.5t18 144.5
h17q0 -106 -23 -196.5t-59.5 -154t-81 -119t-89 -104t-81 -96.5t-59.5 -109t-23 -129q0 -128 86.5 -206t210.5 -78q103 0 200 60t164 181z" />
    <glyph glyph-name="Agrave" unicode="&#xc0;" horiz-adv-x="1052" 
d="M1042 2h-153l-156 432l-237 -301q-62 -79 -132.5 -118.5t-136.5 -39.5q-76 0 -129 47t-65 128.5t30 191.5l455 1118zM559 246l166 211l-279 770l-321 -787q-38 -101 -24.5 -179t67 -125.5t127.5 -47.5q65 0 133.5 39t130.5 119zM580 1579l-7 -8l-282 186l82 92z" />
    <glyph glyph-name="Aacute" unicode="&#xc1;" horiz-adv-x="1052" 
d="M1042 2h-153l-156 432l-237 -301q-62 -79 -132.5 -118.5t-136.5 -39.5q-76 0 -129 47t-65 128.5t30 191.5l455 1118zM559 246l166 211l-279 770l-321 -787q-38 -101 -24.5 -179t67 -125.5t127.5 -47.5q65 0 133.5 39t130.5 119zM459 1571l-6 8l206 270l82 -92z" />
    <glyph glyph-name="Acircumflex" unicode="&#xc2;" horiz-adv-x="1050" 
d="M524 1800l228 -239l-11 -11l-225 125l-225 -123l-8 9l229 239h12zM1042 0h-153l-156 432l-237 -301q-62 -78 -132.5 -117t-136.5 -39q-76 0 -129 47t-65.5 128.5t30.5 191.5l373 911l82 207zM559 244l166 211l-279 770l-321 -787q-38 -101 -24.5 -178.5t67 -124.5
t127.5 -47q143 0 264 156z" />
    <glyph glyph-name="Atilde" unicode="&#xc3;" horiz-adv-x="1052" 
d="M1042 2h-153l-156 432l-237 -301q-62 -79 -132.5 -118.5t-136.5 -39.5q-76 0 -129 47t-65 128.5t30 191.5l455 1118zM559 246l166 211l-279 770l-321 -787q-38 -101 -24.5 -179t67 -125.5t127.5 -47.5q65 0 133.5 39t130.5 119zM764 1679q-26 -108 -113 -108
q-52 0 -148.5 48t-135.5 48q-59 0 -80 -76q-3 26 2 43q24 109 112 109q52 0 149 -48t136 -48q59 0 80 75q3 -26 -2 -43z" />
    <glyph glyph-name="Adieresis" unicode="&#xc4;" horiz-adv-x="1052" 
d="M393 1595q-28 0 -47.5 19.5t-19.5 48.5q0 28 19.5 48t47.5 20t48 -20t20 -48q0 -29 -20 -48.5t-48 -19.5zM623 1595q-28 0 -48 19.5t-20 48.5q0 28 20 48t48 20t47.5 -20t19.5 -48q0 -29 -19.5 -48.5t-47.5 -19.5zM1042 2h-153l-156 432l-237 -301q-62 -79 -132.5 -118.5
t-136.5 -39.5q-76 0 -129 47t-65 128.5t30 191.5l455 1118zM559 246l166 211l-279 770l-321 -787q-38 -101 -24.5 -179t67 -125.5t127.5 -47.5q65 0 133.5 39t130.5 119z" />
    <glyph glyph-name="Aring" unicode="&#xc5;" horiz-adv-x="1052" 
d="M516 1511q-65 0 -111.5 46t-46.5 112q0 65 47 111.5t111 46.5t111 -46.5t47 -111.5q0 -66 -46.5 -112t-111.5 -46zM516 1786q-50 0 -84.5 -34t-34.5 -83t34.5 -84t84.5 -35q49 0 83 34.5t34 84.5q0 49 -33.5 83t-83.5 34zM1042 2h-153l-156 432l-237 -301
q-62 -79 -132.5 -118.5t-136.5 -39.5q-76 0 -129 47t-65 128.5t30 191.5l455 1118zM559 246l166 211l-279 770l-321 -787q-38 -101 -24.5 -179t67 -125.5t127.5 -47.5q65 0 133.5 39t130.5 119z" />
    <glyph glyph-name="AE" unicode="&#xc6;" horiz-adv-x="1626" 
d="M752 2v377l-289 -270q-122 -113 -244 -113q-84 0 -138.5 51t-58 134.5t59.5 189.5l670 1063h843v-19h-514q-119 0 -153 -23.5t-37 -109.5v-534h493v-17h-493v-577q3 -86 37 -110t153 -24h541v-18h-870zM541 207l211 199v991l-598 -942q-43 -67 -50.5 -134.5t15.5 -116.5
t71 -79.5t109 -30.5q121 0 242 113z" />
    <glyph glyph-name="Ccedilla" unicode="&#xc7;" horiz-adv-x="1343" 
d="M1315 528q-24 -127 -81 -229.5t-134.5 -169t-169 -104t-189.5 -43.5l-41 -111q135 17 198 -37t63 -149q0 -84 -58 -142.5t-151 -58.5q-72 0 -146 35v92q78 -90 156 -90q48 0 78 38t30 109q0 92 -53 136.5t-153 31.5l-11 12l58 132q-97 -2 -189.5 25.5t-175 86.5
t-144.5 143t-98 204.5t-36 262.5q0 154 37.5 280t102.5 212.5t154 146t190.5 86.5t213.5 27q222 0 434 -102l-31 -64q-220 129 -448 129q-118 0 -220 -37.5t-180 -108.5t-122.5 -183t-44.5 -252q0 -151 34 -277t92 -212.5t136 -147t164 -88t178 -27.5q125 0 237.5 50
t197.5 153t114 243z" />
    <glyph glyph-name="Egrave" unicode="&#xc8;" horiz-adv-x="997" 
d="M446 18h545v-16h-868v1430h844v-19h-516q-119 0 -152.5 -22.5t-36.5 -108.5v-534h492v-19h-492v-577q3 -86 36.5 -109t152.5 -23zM621 1579l-7 -8l-282 186l82 92z" />
    <glyph glyph-name="Eacute" unicode="&#xc9;" horiz-adv-x="997" 
d="M446 18h545v-16h-868v1430h844v-19h-516q-119 0 -152.5 -22.5t-36.5 -108.5v-534h492v-19h-492v-577q3 -86 36.5 -109t152.5 -23zM459 1571l-6 8l206 270l82 -92z" />
    <glyph glyph-name="Ecircumflex" unicode="&#xca;" horiz-adv-x="997" 
d="M446 18h545v-16h-868v1430h844v-19h-516q-119 0 -152.5 -22.5t-36.5 -108.5v-534h492v-19h-492v-577q3 -86 36.5 -109t152.5 -23zM553 1800l227 -239l-10 -11l-225 125l-226 -123l-8 9l230 239h12z" />
    <glyph glyph-name="Edieresis" unicode="&#xcb;" horiz-adv-x="997" 
d="M479 1595q-28 0 -46.5 19.5t-18.5 48.5q0 28 19 48t46 20q29 0 48.5 -20t19.5 -48q0 -29 -19.5 -48.5t-48.5 -19.5zM709 1595q-28 0 -48 19.5t-20 48.5q0 28 20 48t48 20t47.5 -20t19.5 -48q0 -29 -19.5 -48.5t-47.5 -19.5zM446 18h545v-16h-868v1430h844v-19h-516
q-119 0 -152.5 -22.5t-36.5 -108.5v-534h492v-19h-492v-577q3 -86 36.5 -109t152.5 -23z" />
    <glyph glyph-name="Igrave" unicode="&#xcc;" horiz-adv-x="382" 
d="M260 2h-139v1430h139v-1430zM293 1579l-6 -8l-283 186l82 92z" />
    <glyph glyph-name="Iacute" unicode="&#xcd;" horiz-adv-x="385" 
d="M262 2h-139v1430h139v-1430zM102 1571l-6 8l207 270l82 -92z" />
    <glyph glyph-name="Icircumflex" unicode="&#xce;" horiz-adv-x="385" 
d="M213 1841l227 -239l-10 -11l-225 125l-225 -123l-9 9l230 239h12zM262 2h-139v1430h139v-1430z" />
    <glyph glyph-name="Idieresis" unicode="&#xcf;" horiz-adv-x="385" 
d="M68 1731q28 0 47.5 -20t19.5 -48q0 -29 -19.5 -48.5t-47.5 -19.5t-48 19.5t-20 48.5q0 28 20 48t48 20zM297 1731q27 0 46 -20t19 -48q0 -29 -18.5 -48.5t-46.5 -19.5q-29 0 -48.5 19.5t-19.5 48.5q0 28 19.5 48t48.5 20zM262 2h-139v1430h139v-1430z" />
    <glyph glyph-name="Ntilde" unicode="&#xd1;" horiz-adv-x="1193" 
d="M846 1683q-30 -102 -111 -102q-48 0 -155.5 46t-149.5 46q-62 0 -84 -74q-4 20 2 43q30 103 111 103q48 0 155 -46t148 -46q65 0 86 73q5 -22 -2 -43zM1047 1432h22v-1457h-22l-902 1289v-1262h-22v1430h76l848 -1199v1199z" />
    <glyph glyph-name="Ograve" unicode="&#xd2;" 
d="M752 1462q158 0 290 -60.5t218.5 -163t134 -237.5t47.5 -284t-47.5 -284t-134 -238t-218.5 -163.5t-290 -60.5q-127 0 -238 39.5t-192.5 109t-140.5 163t-88.5 204.5t-29.5 230q0 149 47.5 283.5t133.5 237.5t218 163.5t290 60.5zM872 29q227 -8 345 169q105 156 95 399
q-11 244 -131 453q-129 224 -335 310q-99 41 -209 45q-222 7 -343 -168q-107 -154 -101 -394q5 -245 123 -454q126 -225 336 -313q103 -43 220 -47zM825 1579l-6 -8l-282 186l81 92z" />
    <glyph glyph-name="Oacute" unicode="&#xd3;" 
d="M752 1462q158 0 290 -60.5t218.5 -163t134 -237.5t47.5 -284t-47.5 -284t-134 -238t-218.5 -163.5t-290 -60.5q-127 0 -238 39.5t-192.5 109t-140.5 163t-88.5 204.5t-29.5 230q0 149 47.5 283.5t133.5 237.5t218 163.5t290 60.5zM872 29q227 -8 345 169q105 156 95 399
q-11 244 -131 453q-129 224 -335 310q-99 41 -209 45q-222 7 -343 -168q-107 -154 -101 -394q5 -245 123 -454q126 -225 336 -313q103 -43 220 -47zM664 1571l-7 8l207 270l82 -92z" />
    <glyph glyph-name="Ocircumflex" unicode="&#xd4;" 
d="M752 1462q158 0 290 -60.5t218.5 -163t134 -237.5t47.5 -284t-47.5 -284t-134 -238t-218.5 -163.5t-290 -60.5q-127 0 -238 39.5t-192.5 109t-140.5 163t-88.5 204.5t-29.5 230q0 149 47.5 283.5t133.5 237.5t218 163.5t290 60.5zM872 29q227 -8 345 169q105 156 95 399
q-11 244 -131 453q-129 224 -335 310q-99 41 -209 45q-222 7 -343 -168q-107 -154 -101 -394q5 -245 123 -454q126 -225 336 -313q103 -43 220 -47zM768 1800l227 -239l-10 -11l-225 125l-225 -123l-9 9l230 239h12z" />
    <glyph glyph-name="Otilde" unicode="&#xd5;" 
d="M752 1462q158 0 290 -60.5t218.5 -163t134 -237.5t47.5 -284t-47.5 -284t-134 -238t-218.5 -163.5t-290 -60.5q-127 0 -238 39.5t-192.5 109t-140.5 163t-88.5 204.5t-29.5 230q0 149 47.5 283.5t133.5 237.5t218 163.5t290 60.5zM872 29q227 -8 345 169q105 156 95 399
q-11 244 -131 453q-129 224 -335 310q-99 41 -209 45q-222 7 -343 -168q-107 -154 -101 -394q5 -245 123 -454q126 -225 336 -313q103 -43 220 -47zM967 1679q-26 -108 -113 -108q-52 0 -149 48t-136 48q-59 0 -80 -76q-3 23 3 43q24 109 112 109q52 0 149 -48t136 -48
q59 0 80 75q3 -26 -2 -43z" />
    <glyph glyph-name="Odieresis" unicode="&#xd6;" 
d="M635 1595q-28 0 -48 19.5t-20 48.5q0 28 20 48t48 20t47.5 -20t19.5 -48q0 -29 -19.5 -48.5t-47.5 -19.5zM864 1595q-28 0 -47.5 19.5t-19.5 48.5q0 28 19.5 48t47.5 20t48 -20t20 -48q0 -29 -20 -48.5t-48 -19.5zM752 1462q158 0 290 -60.5t218.5 -163t134 -237.5
t47.5 -284t-47.5 -284t-134 -238t-218.5 -163.5t-290 -60.5q-127 0 -238 39.5t-192.5 109t-140.5 163t-88.5 204.5t-29.5 230q0 149 47.5 283.5t133.5 237.5t218 163.5t290 60.5zM872 29q227 -8 345 169q105 156 95 399q-11 244 -131 453q-129 224 -335 310q-99 41 -209 45
q-222 7 -343 -168q-107 -154 -101 -394q5 -245 123 -454q126 -225 336 -313q103 -43 220 -47z" />
    <glyph glyph-name="multiply" unicode="&#xd7;" horiz-adv-x="583" 
d="M313 715q5 -5 14 -13.5t26.5 -26t38 -38.5t59 -59.5l79.5 -79.5l-22 -21q-199 199 -217 215l-215 -215l-23 21q194 197 217 217q-23 20 -217 217l23 20l215 -215q18 16 217 215l22 -20l-79.5 -79.5t-59 -59.5t-38 -38.5t-26.5 -26t-14 -13.5z" />
    <glyph glyph-name="Oslash" unicode="&#xd8;" 
d="M1135 1358q146 -100 226.5 -268.5t80.5 -364.5q0 -149 -47.5 -284t-134 -237.5t-218.5 -163t-290 -60.5q-204 0 -363 100l-196 -338h-27l203 350q-146 98 -226 266.5t-80 366.5q0 119 29.5 229t88.5 204t140.5 163.5t192.5 109t238 39.5q205 0 364 -100l197 338h26z
M637 1413q-98 3 -178 -30.5t-132.5 -94t-86.5 -144t-44 -177.5t1 -196.5t41.5 -199t84 -188t123.5 -160.5l594 1016q-172 165 -403 174zM872 37q99 -3 178.5 30.5t131.5 93.5t84.5 142.5t41.5 176t-2.5 195.5t-43 198.5t-84 188t-121.5 161.5l-594 -1016q174 -164 409 -170z
" />
    <glyph glyph-name="Ugrave" unicode="&#xd9;" horiz-adv-x="1226" 
d="M1122 557q1 -109 -27 -201.5t-76.5 -157.5t-114 -111.5t-139 -68.5t-151.5 -22q-98 0 -188.5 36t-163 104t-116 177t-42.5 244v875h136v-875q0 -120 35 -215.5t93.5 -153.5t131.5 -88t153 -30q83 0 162 32t142.5 91.5t102 154t38.5 209.5v875h24v-875zM723 1579l-6 -8
l-283 186l82 92z" />
    <glyph glyph-name="Uacute" unicode="&#xda;" horiz-adv-x="1226" 
d="M1122 557q1 -109 -27 -201.5t-76.5 -157.5t-114 -111.5t-139 -68.5t-151.5 -22q-98 0 -188.5 36t-163 104t-116 177t-42.5 244v875h136v-875q0 -120 35 -215.5t93.5 -153.5t131.5 -88t153 -30q83 0 162 32t142.5 91.5t102 154t38.5 209.5v875h24v-875zM561 1571l-6 8
l207 270l82 -92z" />
    <glyph glyph-name="Ucircumflex" unicode="&#xdb;" horiz-adv-x="1226" 
d="M690 1716l-225 -123l-8 9l229 239h12l228 -239l-11 -11zM1122 557q1 -109 -27 -201.5t-76.5 -157.5t-114 -111.5t-139 -68.5t-151.5 -22q-98 0 -188.5 36t-163 104t-116 177t-42.5 244v875h136v-875q0 -120 35 -215.5t93.5 -153.5t131.5 -88t153 -30q83 0 162 32
t142.5 91.5t102 154t38.5 209.5v875h24v-875z" />
    <glyph glyph-name="Udieresis" unicode="&#xdc;" horiz-adv-x="1226" 
d="M553 1595q-28 0 -48 19.5t-20 48.5q0 28 20 48t48 20t48 -20t20 -48q0 -29 -20 -48.5t-48 -19.5zM780 1595q-28 0 -46.5 19.5t-18.5 48.5q0 28 19 48t46 20q29 0 48.5 -20t19.5 -48q0 -29 -19.5 -48.5t-48.5 -19.5zM1122 557q1 -109 -27 -201.5t-76.5 -157.5t-114 -111.5
t-139 -68.5t-151.5 -22q-98 0 -188.5 36t-163 104t-116 177t-42.5 244v875h136v-875q0 -120 35 -215.5t93.5 -153.5t131.5 -88t153 -30q83 0 162 32t142.5 91.5t102 154t38.5 209.5v875h24v-875z" />
    <glyph glyph-name="Yacute" unicode="&#xdd;" horiz-adv-x="1054" 
d="M621 651l2 -8h-2v-641h-138v641h-2l-487 789h156l460 -730l422 730h25l-436 -758v-23zM463 1571l-6 8l207 270l81 -92z" />
    <glyph glyph-name="germandbls" unicode="&#xdf;" horiz-adv-x="1140" 
d="M555 770q0 -37 30 -62.5t78 -41t105.5 -30t115.5 -38t106 -56.5t78 -93t30 -142q0 -99 -57 -180t-145.5 -124.5t-186.5 -43.5q-105 0 -193.5 55.5t-138.5 169.5l18 9q43 -98 118.5 -146.5t160.5 -48.5q113 0 197.5 75t84.5 191q0 69 -23.5 122.5t-61.5 86t-84 58.5
t-92 47.5t-84 45.5t-61.5 60t-23.5 84q0 34 23.5 65.5t56.5 60.5t66 63.5t56.5 90.5t23.5 126q0 113 -72.5 184.5t-169.5 71.5q-49 0 -93.5 -22.5t-81.5 -67t-59 -121t-22 -175.5v-1044h-139v1077q0 91 38 165t100.5 118.5t137.5 68t154 23.5q138 0 235 -66.5t97 -183.5
q0 -59 -18 -107.5t-46 -81t-62.5 -60t-69 -48.5t-62.5 -40.5t-46 -43.5t-18 -51z" />
    <glyph glyph-name="agrave" unicode="&#xe0;" horiz-adv-x="980" 
d="M874 700v-700h-8l-127 127v152q-39 -143 -142.5 -219t-225.5 -76q-130 0 -222 82t-92 227q0 81 34.5 145t95.5 106.5t148 71t186.5 41t217.5 13.5v131q0 134 -82 207t-202 73q-84 0 -165 -37.5t-138 -107.5l-21 18q66 78 172 127t213 49q73 0 135 -24t113 -73
t80.5 -134.5t29.5 -198.5zM188 311q0 -135 67.5 -208.5t166.5 -73.5q58 0 113.5 26.5t101.5 76t74 128.5t28 176v209q-96 2 -177 -7.5t-151 -34t-119 -63.5t-76.5 -97t-27.5 -132zM559 1251l-6 -8l-283 187l82 92z" />
    <glyph glyph-name="aacute" unicode="&#xe1;" horiz-adv-x="980" 
d="M874 700v-700h-8l-127 127v152q-39 -143 -142.5 -219t-225.5 -76q-130 0 -222 82t-92 227q0 81 34.5 145t95.5 106.5t148 71t186.5 41t217.5 13.5v131q0 134 -82 207t-202 73q-84 0 -165 -37.5t-138 -107.5l-21 18q66 78 172 127t213 49q73 0 135 -24t113 -73
t80.5 -134.5t29.5 -198.5zM188 311q0 -135 67.5 -208.5t166.5 -73.5q58 0 113.5 26.5t101.5 76t74 128.5t28 176v209q-96 2 -177 -7.5t-151 -34t-119 -63.5t-76.5 -97t-27.5 -132zM420 1243l-6 8l207 271l81 -92z" />
    <glyph glyph-name="acircumflex" unicode="&#xe2;" horiz-adv-x="980" 
d="M874 700v-700h-8l-127 127v152q-39 -143 -142.5 -219t-225.5 -76q-130 0 -222 82t-92 227q0 81 34.5 145t95.5 106.5t148 71t186.5 41t217.5 13.5v131q0 134 -82 207t-202 73q-84 0 -165 -37.5t-138 -107.5l-21 18q66 78 172 127t213 49q73 0 135 -24t113 -73
t80.5 -134.5t29.5 -198.5zM188 311q0 -135 67.5 -208.5t166.5 -73.5q58 0 113.5 26.5t101.5 76t74 128.5t28 176v209q-96 2 -177 -7.5t-151 -34t-119 -63.5t-76.5 -97t-27.5 -132zM510 1493l227 -240l-10 -10l-225 125l-226 -123l-8 8l230 240h12z" />
    <glyph glyph-name="atilde" unicode="&#xe3;" horiz-adv-x="980" 
d="M874 700v-700h-8l-127 127v152q-39 -143 -142.5 -219t-225.5 -76q-130 0 -222 82t-92 227q0 81 34.5 145t95.5 106.5t148 71t186.5 41t217.5 13.5v131q0 134 -82 207t-202 73q-84 0 -165 -37.5t-138 -107.5l-21 18q66 78 172 127t213 49q73 0 135 -24t113 -73
t80.5 -134.5t29.5 -198.5zM188 311q0 -135 67.5 -208.5t166.5 -73.5q58 0 113.5 26.5t101.5 76t74 128.5t28 176v209q-96 2 -177 -7.5t-151 -34t-119 -63.5t-76.5 -97t-27.5 -132zM741 1372q-26 -108 -112 -108q-52 0 -149 48t-136 48q-59 0 -80 -76q-3 26 2 43
q24 109 113 109q52 0 149 -48.5t136 -48.5q58 0 79 76q3 -26 -2 -43z" />
    <glyph glyph-name="adieresis" unicode="&#xe4;" horiz-adv-x="980" 
d="M389 1245q-28 0 -47.5 20t-19.5 48q0 29 19.5 49t47.5 20t48 -20t20 -49q0 -28 -20 -48t-48 -20zM618 1245q-28 0 -47.5 20t-19.5 48q0 29 19.5 49t47.5 20t48 -20t20 -49q0 -28 -20 -48t-48 -20zM874 700v-700h-8l-127 127v152q-39 -143 -142.5 -219t-225.5 -76
q-130 0 -222 82t-92 227q0 81 34.5 145t95.5 106.5t148 71t186.5 41t217.5 13.5v131q0 134 -82 207t-202 73q-84 0 -165 -37.5t-138 -107.5l-21 18q66 78 172 127t213 49q73 0 135 -24t113 -73t80.5 -134.5t29.5 -198.5zM188 311q0 -135 67.5 -208.5t166.5 -73.5
q58 0 113.5 26.5t101.5 76t74 128.5t28 176v209q-96 2 -177 -7.5t-151 -34t-119 -63.5t-76.5 -97t-27.5 -132z" />
    <glyph glyph-name="aring" unicode="&#xe5;" horiz-adv-x="980" 
d="M504 1163q-66 0 -112 45.5t-46 110.5q0 66 46 112t112 46q65 0 111.5 -46t46.5 -112q0 -64 -46.5 -110t-111.5 -46zM504 1438q-50 0 -84.5 -35t-34.5 -84q0 -48 35 -82.5t84 -34.5t83 34.5t34 82.5q0 50 -34 84.5t-83 34.5zM874 700v-700h-8l-127 127v152
q-39 -143 -142.5 -219t-225.5 -76q-130 0 -222 82t-92 227q0 81 34.5 145t95.5 106.5t148 71t186.5 41t217.5 13.5v131q0 134 -82 207t-202 73q-84 0 -165 -37.5t-138 -107.5l-21 18q66 78 172 127t213 49q73 0 135 -24t113 -73t80.5 -134.5t29.5 -198.5zM188 311
q0 -135 67.5 -208.5t166.5 -73.5q58 0 113.5 26.5t101.5 76t74 128.5t28 176v209q-96 2 -177 -7.5t-151 -34t-119 -63.5t-76.5 -97t-27.5 -132z" />
    <glyph glyph-name="ae" unicode="&#xe6;" horiz-adv-x="1843" 
d="M1790 422l6 -2q-28 -142 -108.5 -244.5t-183 -150.5t-216.5 -48q-147 0 -270.5 83t-179.5 237q-27 -107 -98.5 -182t-165 -109.5t-201.5 -34.5q-131 0 -223.5 82.5t-92.5 227.5q0 100 52 173.5t147 116.5t215 63.5t268 20.5v133q0 134 -82 207.5t-200 73.5
q-86 0 -167 -37.5t-138 -109.5l-21 18q65 78 172 127t215 49q80 0 146.5 -27t119.5 -91.5t76 -161.5q67 140 190 210t263 70q107 0 199 -38.5t150 -113t58 -169.5l-821 2q-12 -58 -12 -103q0 -124 25.5 -225t68 -168.5t101 -113.5t123 -66.5t134.5 -20.5q152 0 280.5 89
t170.5 233zM1565 881q0 95 -80 153t-193 58q-120 0 -228 -69t-159 -202h588q43 0 57.5 13t14.5 47zM416 2q164 -3 243.5 105.5t79.5 316.5v209q-96 2 -177 -8t-151 -35t-119 -64t-76.5 -97t-27.5 -132q0 -134 66 -213t162 -82z" />
    <glyph glyph-name="ccedilla" unicode="&#xe7;" horiz-adv-x="1163" 
d="M1118 403q-19 -97 -67 -176t-114.5 -130.5t-145 -81.5t-162.5 -35l-45 -121q135 17 197.5 -38.5t62.5 -150.5q0 -84 -58 -142t-151 -58q-74 0 -146 34v95q79 -91 158 -91q46 0 76.5 38.5t30.5 109.5q0 91 -53 136t-154 30l-8 12l61 143q-102 -2 -195.5 33t-169.5 102
t-121.5 178t-45.5 249q0 113 32.5 209.5t88 164.5t129 116.5t156 71.5t167.5 23q130 0 243.5 -55.5t180.5 -161.5l-72 -53q-71 111 -184.5 170t-235.5 59q-80 0 -151 -26t-127.5 -74.5t-89.5 -126t-33 -174.5q0 -148 43.5 -268t116 -194.5t161.5 -114t185 -39.5
q144 0 263 87t171 250h6z" />
    <glyph glyph-name="egrave" unicode="&#xe8;" horiz-adv-x="1114" 
d="M1061 424h6q-21 -107 -72.5 -193t-121 -140t-150.5 -82.5t-166 -28.5q-75 0 -145 21.5t-132.5 67t-109 110.5t-73.5 156.5t-27 199.5q0 121 30 220t80 165.5t117 112t139 65.5t148 20q107 0 199 -38t150 -112.5t58 -170.5l-821 2q-12 -54 -12 -103q0 -124 25.5 -225
t68 -168.5t101 -113.5t123 -66.5t134.5 -20.5q150 0 279.5 89.5t171.5 232.5zM836 883q0 95 -80 153t-193 58q-120 0 -228 -69t-159 -202h590q43 1 56.5 14t13.5 46zM621 1251l-7 -8l-282 187l82 92z" />
    <glyph glyph-name="eacute" unicode="&#xe9;" horiz-adv-x="1114" 
d="M1061 424h6q-21 -107 -72.5 -193t-121 -140t-150.5 -82.5t-166 -28.5q-75 0 -145 21.5t-132.5 67t-109 110.5t-73.5 156.5t-27 199.5q0 121 30 220t80 165.5t117 112t139 65.5t148 20q107 0 199 -38t150 -112.5t58 -170.5l-821 2q-12 -54 -12 -103q0 -124 25.5 -225
t68 -168.5t101 -113.5t123 -66.5t134.5 -20.5q150 0 279.5 89.5t171.5 232.5zM836 883q0 95 -80 153t-193 58q-120 0 -228 -69t-159 -202h590q43 1 56.5 14t13.5 46zM522 1243l-6 8l207 271l82 -92z" />
    <glyph glyph-name="ecircumflex" unicode="&#xea;" horiz-adv-x="1114" 
d="M1061 424h6q-21 -107 -72.5 -193t-121 -140t-150.5 -82.5t-166 -28.5q-75 0 -145 21.5t-132.5 67t-109 110.5t-73.5 156.5t-27 199.5q0 121 30 220t80 165.5t117 112t139 65.5t148 20q107 0 199 -38t150 -112.5t58 -170.5l-821 2q-12 -54 -12 -103q0 -124 25.5 -225
t68 -168.5t101 -113.5t123 -66.5t134.5 -20.5q150 0 279.5 89.5t171.5 232.5zM836 883q0 95 -80 153t-193 58q-120 0 -228 -69t-159 -202h590q43 1 56.5 14t13.5 46zM567 1493l228 -240l-11 -10l-225 125l-225 -123l-8 8l229 240h12z" />
    <glyph glyph-name="edieresis" unicode="&#xeb;" horiz-adv-x="1114" 
d="M455 1245q-28 0 -48 20t-20 48q0 29 20 49t48 20t47.5 -20t19.5 -49q0 -28 -19.5 -48t-47.5 -20zM682 1245q-28 0 -47 20t-19 48q0 29 19 49t47 20q29 0 48.5 -20t19.5 -49q0 -28 -19.5 -48t-48.5 -20zM1061 424h6q-21 -107 -72.5 -193t-121 -140t-150.5 -82.5
t-166 -28.5q-75 0 -145 21.5t-132.5 67t-109 110.5t-73.5 156.5t-27 199.5q0 121 30 220t80 165.5t117 112t139 65.5t148 20q107 0 199 -38t150 -112.5t58 -170.5l-821 2q-12 -54 -12 -103q0 -124 25.5 -225t68 -168.5t101 -113.5t123 -66.5t134.5 -20.5q150 0 279.5 89.5
t171.5 232.5zM836 883q0 95 -80 153t-193 58q-120 0 -228 -69t-159 -202h590q43 1 56.5 14t13.5 46z" />
    <glyph glyph-name="igrave" unicode="&#xec;" horiz-adv-x="364" 
d="M113 1040l137 78v-1116h-137v1038zM272 1251l-6 -8l-282 187l82 92z" />
    <glyph glyph-name="iacute" unicode="&#xed;" horiz-adv-x="364" 
d="M113 2v1038l137 78v-1116h-137zM94 1243l-6 8l207 271l82 -92z" />
    <glyph glyph-name="icircumflex" unicode="&#xee;" horiz-adv-x="362" 
d="M193 1493l227 -240l-10 -10l-226 125l-225 -125l-8 10l229 240h13zM113 2v1038l137 78v-1116h-137z" />
    <glyph glyph-name="idieresis" unicode="&#xef;" horiz-adv-x="364" 
d="M145 1313q0 -28 -19.5 -48t-47.5 -20t-48 20t-20 48q0 29 20 49t48 20t47.5 -20t19.5 -49zM307 1382q28 0 47 -20t19 -49q0 -28 -19 -48t-47 -20q-29 0 -48 20t-19 48q0 29 19 49t48 20zM113 2v1038l137 78v-1116h-137z" />
    <glyph glyph-name="ntilde" unicode="&#xf1;" horiz-adv-x="1103" 
d="M860 1352q-30 -103 -112 -103q-47 0 -155.5 46t-150.5 46q-63 0 -84 -73q-2 22 4 41q30 102 111 102q48 0 155.5 -46t149.5 -46q62 0 84 74q2 -17 -2 -41zM999 731h2v-729h-137v729q0 81 -24.5 146t-66 105t-93 60.5t-109.5 20.5q-61 0 -118 -23.5t-103 -66.5t-74 -113
t-28 -155v-703h-137v987l137 117v-244q44 120 149.5 186t229.5 66q72 0 137.5 -24t118.5 -69.5t84.5 -120.5t31.5 -169z" />
    <glyph glyph-name="ograve" unicode="&#xf2;" horiz-adv-x="1185" 
d="M592 1118q122 0 223 -46t167 -125t102 -181.5t36 -216.5t-36 -216.5t-102 -181.5t-167 -125t-223 -46q-121 0 -221.5 46t-166.5 125t-102 181.5t-36 216.5t36 216.5t102 181.5t166.5 125t221.5 46zM188 672q-2 -125 26 -231.5t76 -181t111 -127.5t131.5 -78t137.5 -25
q135 0 228.5 94t96.5 264q2 127 -26 239t-77 191.5t-112.5 137.5t-133.5 86t-140 28q-63 0 -119 -24.5t-100 -72t-70.5 -125t-28.5 -175.5zM659 1251l-6 -8l-282 187l82 92z" />
    <glyph glyph-name="oacute" unicode="&#xf3;" horiz-adv-x="1185" 
d="M592 1118q122 0 223 -46t167 -125t102 -181.5t36 -216.5t-36 -216.5t-102 -181.5t-167 -125t-223 -46q-121 0 -221.5 46t-166.5 125t-102 181.5t-36 216.5t36 216.5t102 181.5t166.5 125t221.5 46zM188 672q-2 -125 26 -231.5t76 -181t111 -127.5t131.5 -78t137.5 -25
q135 0 228.5 94t96.5 264q2 127 -26 239t-77 191.5t-112.5 137.5t-133.5 86t-140 28q-63 0 -119 -24.5t-100 -72t-70.5 -125t-28.5 -175.5zM475 1243l-6 8l207 271l82 -72z" />
    <glyph glyph-name="ocircumflex" unicode="&#xf4;" horiz-adv-x="1185" 
d="M592 1118q122 0 223 -46t167 -125t102 -181.5t36 -216.5t-36 -216.5t-102 -181.5t-167 -125t-223 -46q-121 0 -221.5 46t-166.5 125t-102 181.5t-36 216.5t36 216.5t102 181.5t166.5 125t221.5 46zM188 672q-2 -125 26 -231.5t76 -181t111 -127.5t131.5 -78t137.5 -25
q135 0 228.5 94t96.5 264q2 127 -26 239t-77 191.5t-112.5 137.5t-133.5 86t-140 28q-63 0 -119 -24.5t-100 -72t-70.5 -125t-28.5 -175.5zM600 1493l227 -240l-10 -10l-225 125l-225 -123l-9 8l230 240h12z" />
    <glyph glyph-name="otilde" unicode="&#xf5;" horiz-adv-x="1185" 
d="M592 1118q122 0 223 -46t167 -125t102 -181.5t36 -216.5t-36 -216.5t-102 -181.5t-167 -125t-223 -46q-121 0 -221.5 46t-166.5 125t-102 181.5t-36 216.5t36 216.5t102 181.5t166.5 125t221.5 46zM188 672q-2 -125 26 -231.5t76 -181t111 -127.5t131.5 -78t137.5 -25
q135 0 228.5 94t96.5 264q2 127 -26 239t-77 191.5t-112.5 137.5t-133.5 86t-140 28q-63 0 -119 -24.5t-100 -72t-70.5 -125t-28.5 -175.5zM782 1372q-26 -108 -112 -108q-52 0 -149 48t-136 48q-59 0 -80 -76q-3 26 2 43q24 109 113 109q52 0 149 -48.5t136 -48.5
q58 0 79 76q3 -26 -2 -43z" />
    <glyph glyph-name="odieresis" unicode="&#xf6;" horiz-adv-x="1185" 
d="M451 1245q-28 0 -48 20t-20 48q0 29 20 49t48 20t47.5 -20t19.5 -49q0 -28 -19.5 -48t-47.5 -20zM678 1245q-28 0 -47 20t-19 48q0 29 19 49t47 20q29 0 48 -20t19 -49q0 -28 -19 -48t-48 -20zM592 1118q122 0 223 -46t167 -125t102 -181.5t36 -216.5t-36 -216.5
t-102 -181.5t-167 -125t-223 -46q-121 0 -221.5 46t-166.5 125t-102 181.5t-36 216.5t36 216.5t102 181.5t166.5 125t221.5 46zM188 672q-2 -125 26 -231.5t76 -181t111 -127.5t131.5 -78t137.5 -25q135 0 228.5 94t96.5 264q2 127 -26 239t-77 191.5t-112.5 137.5
t-133.5 86t-140 28q-63 0 -119 -24.5t-100 -72t-70.5 -125t-28.5 -175.5z" />
    <glyph glyph-name="oslash" unicode="&#xf8;" horiz-adv-x="1185" 
d="M887 1030q111 -76 172 -203.5t61 -277.5q0 -114 -36 -216.5t-102 -181.5t-167 -125t-223 -46q-157 0 -275 73l-153 -264h-27l162 277q-112 75 -172.5 203t-60.5 280q0 113 36 215.5t102 181t166.5 124.5t221.5 46q156 0 276 -74l156 265h25zM188 670q-3 -163 43 -290.5
t127 -211.5l447 764q-67 67 -145 102t-154 35q-133 0 -224 -102.5t-94 -296.5zM375 152q131 -125 295 -125q135 0 228.5 94t96.5 264q3 169 -44 303t-130 227z" />
    <glyph glyph-name="ugrave" unicode="&#xf9;" horiz-adv-x="1105" 
d="M854 1040l137 78v-1116l-137 51v289q-31 -174 -141.5 -268t-247.5 -94q-70 0 -135 26.5t-116.5 75.5t-82.5 128t-31 175v655l138 78v-733q0 -146 87 -235t205 -89q61 0 117.5 27.5t103.5 82t75 146.5t28 209v514zM635 1251l-6 -8l-283 187l82 92z" />
    <glyph glyph-name="uacute" unicode="&#xfa;" horiz-adv-x="1105" 
d="M854 1040l137 78v-1116l-137 51v289q-31 -174 -141.5 -268t-247.5 -94q-70 0 -135 26.5t-116.5 75.5t-82.5 128t-31 175v655l138 78v-733q0 -146 87 -235t205 -89q61 0 117.5 27.5t103.5 82t75 146.5t28 209v514zM500 1243l-6 8l206 271l82 -92z" />
    <glyph glyph-name="ucircumflex" unicode="&#xfb;" horiz-adv-x="1105" 
d="M584 1368l-226 -125l-10 10l232 240h10l227 -240l-8 -10zM854 1040l137 78v-1116l-137 51v289q-31 -174 -141.5 -268t-247.5 -94q-70 0 -135 26.5t-116.5 75.5t-82.5 128t-31 175v655l138 78v-733q0 -146 87 -235t205 -89q61 0 117.5 27.5t103.5 82t75 146.5t28 209v514z
" />
    <glyph glyph-name="udieresis" unicode="&#xfc;" horiz-adv-x="1105" 
d="M467 1245q-28 0 -47 20t-19 48q0 29 19 49t47 20q29 0 48.5 -20t19.5 -49q0 -28 -19.5 -48t-48.5 -20zM696 1245q-28 0 -47.5 20t-19.5 48q0 29 19.5 49t47.5 20t48 -20t20 -49q0 -28 -20 -48t-48 -20zM854 1040l137 78v-1116l-137 51v289q-31 -174 -141.5 -268
t-247.5 -94q-70 0 -135 26.5t-116.5 75.5t-82.5 128t-31 175v655l138 78v-733q0 -146 87 -235t205 -89q61 0 117.5 27.5t103.5 82t75 146.5t28 209v514z" />
    <glyph glyph-name="yacute" unicode="&#xfd;" horiz-adv-x="913" 
d="M866 1106h31l-418 -1032q-7 -18 -22 -56q-67 -169 -119 -247q-133 -200 -368 -212q-15 -1 -31 -1v24q52 1 99.5 11t84 25t71 40.5t59 49t49 58.5t39.5 61t33 65.5t27.5 63t24 62t20.5 54.5l7 14l10 25q2 6 6 14l-457 981h152l375 -807q61 152 162.5 400.5t164.5 406.5z
M422 1243l-6 8l207 271l82 -92z" />
    <glyph glyph-name="ydieresis" unicode="&#xff;" horiz-adv-x="913" 
d="M406 1245q-28 0 -47 20t-19 48q0 29 19 49t47 20q29 0 48 -20t19 -49q0 -28 -19 -48t-48 -20zM635 1245q-28 0 -48 20t-20 48q0 29 20 49t48 20t47.5 -20t19.5 -49q0 -28 -19.5 -48t-47.5 -20zM866 1106h31l-418 -1032q-7 -18 -22 -56q-67 -169 -119 -247
q-133 -200 -368 -212q-15 -1 -31 -1v24q52 1 99.5 11t84 25t71 40.5t59 49t49 58.5t39.5 61t33 65.5t27.5 63t24 62t20.5 54.5l7 14l10 25q2 6 6 14l-457 981h152l375 -807q61 152 162.5 400.5t164.5 406.5z" />
    <glyph glyph-name="Abreve" unicode="&#x102;" horiz-adv-x="1050" 
d="M516 1552q-107 0 -162 53.5t-65 135.5l82 18q11 -89 41.5 -137.5t103.5 -48.5q38 0 65.5 14t43 41.5t24 58t13.5 72.5l81 -18q-10 -82 -65 -135.5t-162 -53.5zM1042 0h-153l-156 432l-237 -301q-62 -78 -132.5 -117t-136.5 -39q-76 0 -129 47t-65.5 128.5t30.5 191.5
l373 911l82 207zM559 244l166 211l-279 770l-321 -787q-38 -101 -24.5 -178.5t67 -124.5t127.5 -47q143 0 264 156z" />
    <glyph glyph-name="abreve" unicode="&#x103;" horiz-adv-x="980" 
d="M506 1243q-107 0 -162 53.5t-65 135.5l81 18q5 -42 13.5 -72.5t24 -58t43 -41.5t65.5 -14q73 0 103.5 48.5t41.5 137.5l82 -18q-10 -82 -65 -135.5t-162 -53.5zM874 700v-702h-8l-127 129v152q-39 -143 -142.5 -220t-225.5 -77q-129 0 -221.5 82.5t-92.5 226.5
q0 100 52 174.5t147 118t215 64t268 20.5v133q0 134 -82 207t-202 73q-84 0 -165 -38.5t-138 -108.5l-21 18q66 78 172 127t213 49q73 0 135 -24t113 -73t80.5 -134t29.5 -197zM188 309q0 -134 68 -208t166 -74q58 0 113.5 26.5t101.5 76t74 129.5t28 177v209q-96 2 -177 -8
t-151 -35t-119 -64t-76.5 -97t-27.5 -132z" />
    <glyph glyph-name="Dcroat" unicode="&#x110;" horiz-adv-x="1341" 
d="M586 1430q149 -1 273.5 -51t205 -133t137 -191t68.5 -226.5t-0.5 -237t-68.5 -225.5t-136.5 -189t-205 -130t-273.5 -47h-463v700h-123v23h123v707h463zM586 18q118 0 216 47.5t162 128.5t108 185.5t54 220t0 231t-54 220t-108 185t-162 128t-216 47.5h-135
q-46 0 -74.5 -2t-51.5 -9.5t-34 -17t-18.5 -31.5t-9 -46t-1.5 -66v-516h334v-23h-334v-510q0 -42 1.5 -66t9 -46t18.5 -31.5t34 -17t51.5 -9.5t74.5 -2h135z" />
    <glyph glyph-name="dcroat" unicode="&#x111;" horiz-adv-x="1208" 
d="M954 1620l138 78v-375h116v-23h-116v-1312h-9l-129 129v280q-30 -133 -105.5 -230.5t-169.5 -143.5t-196 -46q-82 0 -155 32t-132 93t-93.5 160t-34.5 223q0 123 33.5 228t90 178t130.5 124.5t154.5 76t162.5 24.5q198 0 315 -129v313h-321v23h321v297zM954 563v189
q0 148 -109.5 235.5t-260.5 87.5q-81 0 -156 -28t-137 -82t-99.5 -145t-37.5 -206q0 -133 33.5 -238.5t90.5 -169.5t126.5 -97t146.5 -33t148.5 32.5t128.5 92t91.5 154t34.5 208.5z" />
    <glyph glyph-name="Itilde" unicode="&#x128;" horiz-adv-x="385" 
d="M428 1679q-26 -108 -113 -108q-52 0 -148.5 48t-135.5 48q-59 0 -80 -76q-3 26 2 43q24 109 113 109q52 0 148.5 -48t135.5 -48q59 0 80 75q3 -26 -2 -43zM262 0h-139v1430h139v-1430z" />
    <glyph glyph-name="itilde" unicode="&#x129;" horiz-adv-x="364" 
d="M416 1372q-26 -108 -113 -108q-52 0 -149 48t-136 48q-58 0 -79 -76q-3 26 2 43q24 109 112 109q52 0 149 -48.5t136 -48.5q59 0 80 76q3 -26 -2 -43zM113 1040l137 76v-1116h-137v1040z" />
    <glyph glyph-name="dotlessi" unicode="&#x131;" horiz-adv-x="364" 
d="M113 1040l137 76v-1116h-137v1040z" />
    <glyph glyph-name="OE" unicode="&#x152;" horiz-adv-x="1951" 
d="M1217 731v-577q1 -37 6 -58.5t16 -38t33.5 -24t52.5 -10.5t80 -3h543v-18h-871l-323 2q-149 -2 -273.5 46t-205 130t-136.5 188.5t-68.5 225t-0.5 237.5t68.5 226.5t137 191.5t205 134t273.5 51h1167v-19h-516q-119 0 -152 -23.5t-36 -109.5v-534h493v-17h-493zM754 1415
q-132 0 -238.5 -60t-172 -157.5t-101 -222.5t-35.5 -256t35.5 -256t101 -222.5t172 -157.5t238.5 -60l2 -3h133q46 0 74.5 2t51.5 9.5t33.5 17.5t18 32t9 46t1.5 66v1050q0 63 -4 92t-25 50t-55.5 25.5t-103.5 4.5h-135z" />
    <glyph glyph-name="oe" unicode="&#x153;" horiz-adv-x="2068" 
d="M2015 422l6 -2q-28 -142 -108.5 -244.5t-183 -150.5t-216.5 -48q-144 0 -266 80t-180 230q-61 -141 -184.5 -225.5t-290.5 -84.5q-121 0 -221.5 46.5t-166.5 125t-102 181.5t-36 217t36 216.5t102 181.5t166.5 125t221.5 46q171 0 294.5 -86.5t184.5 -230.5
q61 158 189.5 237.5t277.5 79.5q107 0 199 -38t150.5 -112.5t58.5 -170.5l-822 2q-10 -48 -10 -103q0 -44 2 -67v-11l2 -24v-10q13 -124 56 -219t105 -151t134.5 -84t151.5 -28q152 0 281 89t169 233zM1792 881q0 95 -80 153t-194 58q-120 0 -228.5 -69t-159.5 -202h590
q43 0 57.5 13t14.5 47zM995 383q2 128 -26 240.5t-77 192t-113 137.5t-133.5 86t-139.5 28q-133 0 -223.5 -102.5t-94.5 -296.5q-2 -125 26 -231.5t76 -181t111 -127.5t131.5 -78t137.5 -25q135 0 228.5 94t96.5 264z" />
    <glyph glyph-name="Scaron" unicode="&#x160;" horiz-adv-x="1118" 
d="M592 1591h-12l-228 240l10 10l226 -125l225 123l8 -8zM209 1184q0 -57 24 -104.5t65 -81.5t95.5 -64.5t116 -53.5t126.5 -49t126.5 -49.5t116 -56.5t95.5 -70t65 -89.5t24 -114.5q0 -88 -28.5 -163t-77 -128t-113.5 -90.5t-139 -55.5t-152 -18q-173 0 -317.5 86
t-200.5 242l55 24q38 -104 117 -178t172 -107.5t194 -33.5q110 0 203 39t153 119.5t60 187.5q0 67 -47.5 121.5t-123.5 92.5t-167.5 73.5t-183 74.5t-167.5 84.5t-123.5 115t-47.5 155.5t37 157t98 116t137.5 69t159.5 24q139 0 255 -66t165 -192l-49 -26q-57 128 -166 192
t-234 64q-133 0 -228 -68t-95 -178z" />
    <glyph glyph-name="scaron" unicode="&#x161;" horiz-adv-x="890" 
d="M420 1243h-12l-228 240l10 8l226 -125l225 125l8 -8zM209 932q0 -62 34.5 -112t90 -84t122 -64.5t133.5 -62t122.5 -68t90 -91t34.5 -122.5q0 -86 -33.5 -155.5t-89.5 -112.5t-125.5 -66t-145.5 -23q-133 0 -245 67t-154 189l57 21q44 -122 147 -190t218 -68
q118 0 199 72.5t81 205.5q0 47 -27 86.5t-71 68t-100.5 57t-115.5 52.5t-115.5 56t-100.5 66.5t-71 85t-27 110.5q0 124 92.5 197t220.5 73q105 0 194.5 -53t127.5 -154l-62 -16q-38 101 -116 154t-164 53q-83 0 -142 -46.5t-59 -125.5z" />
    <glyph glyph-name="Utilde" unicode="&#x168;" horiz-adv-x="1226" 
d="M864 1679q-26 -108 -112 -108q-52 0 -149 48t-136 48q-59 0 -80 -76q-3 26 2 43q24 109 113 109q52 0 148.5 -48t135.5 -48q59 0 80 75q3 -26 -2 -43zM1122 555q1 -109 -27 -201.5t-76.5 -157.5t-114 -111.5t-139 -68.5t-151.5 -22q-98 0 -188.5 36t-163 104t-116 177
t-42.5 244v875h136v-875q0 -120 35 -215.5t93.5 -153.5t131.5 -88t153 -30q83 0 162 32t142.5 91.5t102 154t38.5 209.5v875h24v-875z" />
    <glyph glyph-name="utilde" unicode="&#x169;" horiz-adv-x="1105" 
d="M784 1372q-26 -108 -112 -108q-52 0 -149 48t-136 48q-59 0 -80 -76q-3 26 2 43q24 109 113 109q52 0 149 -48.5t136 -48.5q58 0 79 76q3 -26 -2 -43zM854 1040l137 76v-1116l-137 51v289q-31 -174 -141.5 -268.5t-247.5 -94.5q-70 0 -135 26.5t-116.5 76t-82.5 128.5
t-31 175v657l138 76v-733q0 -145 87 -233.5t205 -88.5q61 0 117.5 27.5t103.5 81t75 145.5t28 209v516z" />
    <glyph glyph-name="Ydieresis" unicode="&#x178;" horiz-adv-x="1054" 
d="M453 1595q-29 0 -48.5 19.5t-19.5 48.5q0 28 19.5 48t48.5 20q27 0 46 -20t19 -48q0 -29 -18.5 -48.5t-46.5 -19.5zM680 1595q-28 0 -48 19.5t-20 48.5q0 28 20 48t48 20t48 -20t20 -48q0 -29 -20 -48.5t-48 -19.5zM621 651l2 -8h-2v-641h-138v641h-2l-487 789h156
l460 -730l422 730h25l-436 -758v-23z" />
    <glyph glyph-name="zcaron" unicode="&#x17e;" horiz-adv-x="864" 
d="M455 1243h-11l-227 240l8 8l226 -125l225 125l10 -8zM840 1110v-23l-650 -1060h623v-25h-790v21l655 1062h-612v25h774z" />
    <glyph glyph-name="Ohorn" unicode="&#x1a0;" 
d="M752 1460q236 0 411 -135q47 17 64.5 35.5t10 37t-22 36t-29.5 39.5t-15 40q0 42 24.5 66.5t57.5 24.5t57.5 -25t24.5 -70q0 -57 -41 -115t-114 -81q125 -104 193.5 -260.5t68.5 -337.5q0 -149 -47.5 -283.5t-134 -237.5t-218.5 -164t-290 -61t-290 61t-218 164
t-133.5 237.5t-47.5 283.5t47.5 283.5t133.5 237.5t218 163.5t290 60.5zM872 27q227 -7 345 170q105 156 95 398q-11 245 -131 454q-129 224 -334 309q-99 41 -210 45q-222 8 -343 -167q-107 -154 -101 -394q5 -245 122 -454q127 -225 335 -313q105 -44 222 -48z" />
    <glyph glyph-name="ohorn" unicode="&#x1a1;" horiz-adv-x="1185" 
d="M592 1116q186 0 321 -106q46 17 62.5 35t9 36.5t-22 36t-29.5 39t-15 39.5q0 42 24 66t57 24t57.5 -24.5t24.5 -69.5q0 -55 -41 -112.5t-112 -82.5q93 -79 142.5 -197t49.5 -253q0 -113 -36 -215.5t-102 -181t-167 -124.5t-223 -46q-121 0 -221.5 46t-166.5 124.5
t-102 181t-36 215.5q0 114 36 216.5t102 181.5t166.5 125t221.5 46zM188 670q-2 -125 26 -231.5t76 -181t111 -127.5t131.5 -78t137.5 -25q135 0 228.5 94t96.5 264q2 128 -26 240.5t-77 192t-113 137.5t-133.5 86t-139.5 28q-133 0 -223.5 -102.5t-94.5 -296.5z" />
    <glyph glyph-name="Uhorn" unicode="&#x1af;" horiz-adv-x="1226" 
d="M1122 555q1 -109 -27 -201.5t-76.5 -157.5t-114 -111.5t-139 -68.5t-151.5 -22q-98 0 -188.5 36t-163 104t-116 177t-42.5 244v875h136v-875q0 -120 35 -215.5t93.5 -153.5t131.5 -88t153 -30q83 0 162 32t142.5 91.5t102 154t38.5 209.5v875h24v-105q48 17 66 35t11 37
t-21 36t-29.5 39.5t-15.5 40.5q0 42 24 66.5t57 24.5t57.5 -25t24.5 -70q0 -60 -46.5 -120.5t-127.5 -79.5v-754z" />
    <glyph glyph-name="uhorn" unicode="&#x1b0;" horiz-adv-x="1105" 
d="M854 1040l137 76v-108q48 17 66 35t11 37t-21.5 36t-30 39.5t-15.5 40.5q0 42 24.5 66t57.5 24t57.5 -24.5t24.5 -69.5q0 -60 -46.5 -121t-127.5 -80v-991l-137 51v289q-31 -174 -141.5 -268.5t-247.5 -94.5q-70 0 -135 26.5t-116.5 76t-82.5 128.5t-31 175v657l138 76
v-733q0 -145 87 -233.5t205 -88.5q61 0 117.5 27.5t103.5 81t75 145.5t28 209v516z" />
    <glyph glyph-name="circumflex" unicode="&#x2c6;" horiz-adv-x="534" 
d="M274 1487l228 -240l-10 -10l-226 125l-225 -123l-8 8l229 240h12z" />
    <glyph glyph-name="gravecomb" unicode="&#x300;" horiz-adv-x="288" 
d="M25 1583l229 -350l-8 -8l-303 286z" />
    <glyph glyph-name="acutecomb" unicode="&#x301;" horiz-adv-x="288" 
d="M264 1583l82 -72l-303 -286l-8 8z" />
    <glyph glyph-name="tildecomb" unicode="&#x303;" horiz-adv-x="583" 
d="M543 1389q5 -22 -2 -43q-30 -103 -111 -103q-48 0 -155 46t-148 46q-65 0 -86 -73q-5 22 2 43q30 102 111 102q48 0 155 -46t148 -46q64 0 86 74z" />
    <glyph glyph-name="uni030A" unicode="&#x30a;" horiz-adv-x="413" 
d="M207 1473q64 0 109.5 -46.5t45.5 -111.5t-45.5 -111.5t-109.5 -46.5q-66 0 -112 46.5t-46 111.5t46 111.5t112 46.5zM207 1196q48 0 82.5 35t34.5 84t-34.5 83t-82.5 34q-50 0 -84.5 -34t-34.5 -83t35 -84t84 -35z" />
    <glyph glyph-name="uni030C" unicode="&#x30c;" horiz-adv-x="440" 
d="M446 1485l9 -8l-232 -240h-10l-227 240l10 10l223 -125z" />
    <glyph glyph-name="uni1EA0" unicode="&#x1ea0;" horiz-adv-x="1050" 
d="M569 -315q0 -35 -25.5 -60.5t-60.5 -25.5q-34 0 -59 25.5t-25 60.5q0 22 13.5 49t27 45t43.5 55q29 -34 44.5 -54t28.5 -46.5t13 -48.5zM1042 0h-153l-156 432l-237 -301q-62 -78 -132.5 -117t-136.5 -39q-76 0 -129 47t-65.5 128.5t30.5 191.5l373 911l82 207zM559 244
l166 211l-279 770l-321 -787q-38 -101 -24.5 -178.5t67 -124.5t127.5 -47q143 0 264 156z" />
    <glyph glyph-name="uni1EA1" unicode="&#x1ea1;" horiz-adv-x="980" 
d="M590 -315q0 -35 -25.5 -60.5t-60.5 -25.5q-34 0 -59 25.5t-25 60.5q0 22 13.5 49t27 45t43.5 55q29 -34 44.5 -54t28.5 -46.5t13 -48.5zM874 700v-702h-8l-127 129v152q-39 -143 -142.5 -220t-225.5 -77q-129 0 -221.5 82.5t-92.5 226.5q0 100 52 174.5t147 118t215 64
t268 20.5v133q0 134 -82 207t-202 73q-84 0 -165 -38.5t-138 -108.5l-21 18q66 78 172 127t213 49q73 0 135 -24t113 -73t80.5 -134t29.5 -197zM188 309q0 -134 68 -208t166 -74q58 0 113.5 26.5t101.5 76t74 129.5t28 177v209q-96 2 -177 -8t-151 -35t-119 -64t-76.5 -97
t-27.5 -132z" />
    <glyph glyph-name="uni1EA2" unicode="&#x1ea2;" horiz-adv-x="1050" 
d="M453 1774q0 42 24.5 66t57.5 24t57 -25t24 -70q0 -50 -37.5 -109.5t-78.5 -88.5l-4 4q28 32 25 62t-18 47.5t-32.5 42.5t-17.5 47zM1042 0h-153l-156 432l-237 -301q-62 -78 -132.5 -117t-136.5 -39q-76 0 -129 47t-65.5 128.5t30.5 191.5l373 911l82 207zM559 244
l166 211l-279 770l-321 -787q-38 -101 -24.5 -178.5t67 -124.5t127.5 -47q143 0 264 156z" />
    <glyph glyph-name="uni1EA3" unicode="&#x1ea3;" horiz-adv-x="980" 
d="M469 1446q0 42 24.5 66t57.5 24t57.5 -24.5t24.5 -69.5q0 -50 -38 -110t-79 -89l-4 4q28 32 25 62t-18 47.5t-32.5 42.5t-17.5 47zM874 700v-702h-8l-127 129v152q-39 -143 -142.5 -220t-225.5 -77q-129 0 -221.5 82.5t-92.5 226.5q0 100 52 174.5t147 118t215 64
t268 20.5v133q0 134 -82 207t-202 73q-84 0 -165 -38.5t-138 -108.5l-21 18q66 78 172 127t213 49q73 0 135 -24t113 -73t80.5 -134t29.5 -197zM188 309q0 -134 68 -208t166 -74q58 0 113.5 26.5t101.5 76t74 129.5t28 177v209q-96 2 -177 -8t-151 -35t-119 -64t-76.5 -97
t-27.5 -132z" />
    <glyph glyph-name="uni1EA4" unicode="&#x1ea4;" horiz-adv-x="1050" 
d="M696 1714l-6 8l207 271l82 -92zM524 1800l228 -239l-11 -11l-225 125l-225 -123l-8 9l229 239h12zM1042 0h-153l-156 432l-237 -301q-62 -78 -132.5 -117t-136.5 -39q-76 0 -129 47t-65.5 128.5t30.5 191.5l373 911l82 207zM559 244l166 211l-279 770l-321 -787
q-38 -101 -24.5 -178.5t67 -124.5t127.5 -47q143 0 264 156z" />
    <glyph glyph-name="uni1EA5" unicode="&#x1ea5;" horiz-adv-x="980" 
d="M684 1407l-6 8l207 271l82 -93zM874 700v-700h-8l-127 127v152q-39 -143 -142.5 -219t-225.5 -76q-130 0 -222 82t-92 227q0 81 34.5 145t95.5 106.5t148 71t186.5 41t217.5 13.5v131q0 134 -82 207t-202 73q-84 0 -165 -37.5t-138 -107.5l-21 18q66 78 172 127t213 49
q73 0 135 -24t113 -73t80.5 -134.5t29.5 -198.5zM188 311q0 -135 67.5 -208.5t166.5 -73.5q58 0 113.5 26.5t101.5 76t74 128.5t28 176v209q-96 2 -177 -7.5t-151 -34t-119 -63.5t-76.5 -97t-27.5 -132zM510 1493l227 -240l-10 -10l-225 125l-226 -123l-8 8l230 240h12z" />
    <glyph glyph-name="uni1EA6" unicode="&#x1ea6;" horiz-adv-x="1050" 
d="M805 1722l-6 -8l-283 187l82 92zM524 1800l228 -239l-11 -11l-225 125l-225 -123l-8 9l229 239h12zM1042 0h-153l-156 432l-237 -301q-62 -78 -132.5 -117t-136.5 -39q-76 0 -129 47t-65.5 128.5t30.5 191.5l373 911l82 207zM559 244l166 211l-279 770l-321 -787
q-38 -101 -24.5 -178.5t67 -124.5t127.5 -47q143 0 264 156z" />
    <glyph glyph-name="uni1EA7" unicode="&#x1ea7;" horiz-adv-x="980" 
d="M791 1415l-7 -8l-282 186l82 93zM874 700v-700h-8l-127 127v152q-39 -143 -142.5 -219t-225.5 -76q-130 0 -222 82t-92 227q0 81 34.5 145t95.5 106.5t148 71t186.5 41t217.5 13.5v131q0 134 -82 207t-202 73q-84 0 -165 -37.5t-138 -107.5l-21 18q66 78 172 127t213 49
q73 0 135 -24t113 -73t80.5 -134.5t29.5 -198.5zM188 311q0 -135 67.5 -208.5t166.5 -73.5q58 0 113.5 26.5t101.5 76t74 128.5t28 176v209q-96 2 -177 -7.5t-151 -34t-119 -63.5t-76.5 -97t-27.5 -132zM510 1493l227 -240l-10 -10l-225 125l-226 -123l-8 8l230 240h12z" />
    <glyph glyph-name="uni1EA8" unicode="&#x1ea8;" horiz-adv-x="1050" 
d="M674 1903q0 42 24.5 66t57.5 24t57.5 -25t24.5 -70q0 -50 -38 -109.5t-79 -88.5l-4 4q21 27 24.5 50.5t-7 41.5t-23.5 34t-25 35.5t-12 37.5zM524 1800l228 -239l-11 -11l-225 125l-225 -123l-8 9l229 239h12zM1042 0h-153l-156 432l-237 -301q-62 -78 -132.5 -117
t-136.5 -39q-76 0 -129 47t-65.5 128.5t30.5 191.5l373 911l82 207zM559 244l166 211l-279 770l-321 -787q-38 -101 -24.5 -178.5t67 -124.5t127.5 -47q143 0 264 156z" />
    <glyph glyph-name="uni1EA9" unicode="&#x1ea9;" horiz-adv-x="980" 
d="M659 1595q0 42 24.5 66.5t57.5 24.5t57.5 -25t24.5 -70q0 -50 -37.5 -109.5t-78.5 -88.5l-5 4q28 32 25 62t-18 47t-32.5 42t-17.5 47zM874 700v-700h-8l-127 127v152q-39 -143 -142.5 -219t-225.5 -76q-130 0 -222 82t-92 227q0 81 34.5 145t95.5 106.5t148 71t186.5 41
t217.5 13.5v131q0 134 -82 207t-202 73q-84 0 -165 -37.5t-138 -107.5l-21 18q66 78 172 127t213 49q73 0 135 -24t113 -73t80.5 -134.5t29.5 -198.5zM188 311q0 -135 67.5 -208.5t166.5 -73.5q58 0 113.5 26.5t101.5 76t74 128.5t28 176v209q-96 2 -177 -7.5t-151 -34
t-119 -63.5t-76.5 -97t-27.5 -132zM510 1493l227 -240l-10 -10l-225 125l-226 -123l-8 8l230 240h12z" />
    <glyph glyph-name="uni1EAA" unicode="&#x1eaa;" horiz-adv-x="1050" 
d="M754 1958q-27 -109 -113 -109q-52 0 -149 48.5t-136 48.5q-59 0 -80 -76q-3 23 3 43q24 108 112 108q52 0 149 -48t136 -48q59 0 80 76q3 -26 -2 -43zM524 1800l228 -239l-11 -11l-225 125l-225 -123l-8 9l229 239h12zM1042 0h-153l-156 432l-237 -301
q-62 -78 -132.5 -117t-136.5 -39q-76 0 -129 47t-65.5 128.5t30.5 191.5l373 911l82 207zM559 244l166 211l-279 770l-321 -787q-38 -101 -24.5 -178.5t67 -124.5t127.5 -47q143 0 264 156z" />
    <glyph glyph-name="uni1EAB" unicode="&#x1eab;" horiz-adv-x="980" 
d="M739 1651q-27 -109 -112 -109q-52 0 -149 48t-136 48q-59 0 -80 -75q-3 26 2 43q24 108 113 108q52 0 149 -48t136 -48q58 0 79 76q3 -26 -2 -43zM874 700v-700h-8l-127 127v152q-39 -143 -142.5 -219t-225.5 -76q-130 0 -222 82t-92 227q0 81 34.5 145t95.5 106.5
t148 71t186.5 41t217.5 13.5v131q0 134 -82 207t-202 73q-84 0 -165 -37.5t-138 -107.5l-21 18q66 78 172 127t213 49q73 0 135 -24t113 -73t80.5 -134.5t29.5 -198.5zM188 311q0 -135 67.5 -208.5t166.5 -73.5q58 0 113.5 26.5t101.5 76t74 128.5t28 176v209
q-96 2 -177 -7.5t-151 -34t-119 -63.5t-76.5 -97t-27.5 -132zM510 1493l227 -240l-10 -10l-225 125l-226 -123l-8 8l230 240h12z" />
    <glyph glyph-name="uni1EAC" unicode="&#x1eac;" horiz-adv-x="1050" 
d="M569 -315q0 -35 -25.5 -60.5t-60.5 -25.5q-34 0 -59 25.5t-25 60.5q0 22 13.5 49t27 45t43.5 55q29 -34 44.5 -54t28.5 -46.5t13 -48.5zM524 1800l228 -239l-11 -11l-225 125l-225 -123l-8 9l229 239h12zM1042 0h-153l-156 432l-237 -301q-62 -78 -132.5 -117t-136.5 -39
q-76 0 -129 47t-65.5 128.5t30.5 191.5l373 911l82 207zM559 244l166 211l-279 770l-321 -787q-38 -101 -24.5 -178.5t67 -124.5t127.5 -47q143 0 264 156z" />
    <glyph glyph-name="uni1EAD" unicode="&#x1ead;" horiz-adv-x="980" 
d="M590 -315q0 -35 -25.5 -60.5t-60.5 -25.5q-34 0 -59 25.5t-25 60.5q0 22 13.5 49t27 45t43.5 55q29 -34 44.5 -54t28.5 -46.5t13 -48.5zM874 700v-700h-8l-127 127v152q-39 -143 -142.5 -219t-225.5 -76q-130 0 -222 82t-92 227q0 81 34.5 145t95.5 106.5t148 71
t186.5 41t217.5 13.5v131q0 134 -82 207t-202 73q-84 0 -165 -37.5t-138 -107.5l-21 18q66 78 172 127t213 49q73 0 135 -24t113 -73t80.5 -134.5t29.5 -198.5zM188 311q0 -135 67.5 -208.5t166.5 -73.5q58 0 113.5 26.5t101.5 76t74 128.5t28 176v209q-96 2 -177 -7.5
t-151 -34t-119 -63.5t-76.5 -97t-27.5 -132zM510 1493l227 -240l-10 -10l-225 125l-226 -123l-8 8l230 240h12z" />
    <glyph glyph-name="uni1EAE" unicode="&#x1eae;" horiz-adv-x="1050" 
d="M477 1759l-6 8l207 271l82 -92zM516 1552q-107 0 -162 53.5t-65 135.5l82 18q11 -89 41.5 -137.5t103.5 -48.5q38 0 65.5 14t43 41.5t24 58t13.5 72.5l81 -18q-10 -82 -65 -135.5t-162 -53.5zM1042 0h-153l-156 432l-237 -301q-62 -78 -132.5 -117t-136.5 -39
q-76 0 -129 47t-65.5 128.5t30.5 191.5l373 911l82 207zM559 244l166 211l-279 770l-321 -787q-38 -101 -24.5 -178.5t67 -124.5t127.5 -47q143 0 264 156z" />
    <glyph glyph-name="uni1EAF" unicode="&#x1eaf;" horiz-adv-x="980" 
d="M467 1450l-6 8l207 271l82 -93zM506 1243q-107 0 -162 53.5t-65 135.5l81 18q5 -42 13.5 -72.5t24 -58t43 -41.5t65.5 -14q73 0 103.5 48.5t41.5 137.5l82 -18q-10 -82 -65 -135.5t-162 -53.5zM874 700v-702h-8l-127 129v152q-39 -143 -142.5 -220t-225.5 -77
q-129 0 -221.5 82.5t-92.5 226.5q0 100 52 174.5t147 118t215 64t268 20.5v133q0 134 -82 207t-202 73q-84 0 -165 -38.5t-138 -108.5l-21 18q66 78 172 127t213 49q73 0 135 -24t113 -73t80.5 -134t29.5 -197zM188 309q0 -134 68 -208t166 -74q58 0 113.5 26.5t101.5 76
t74 129.5t28 177v209q-96 2 -177 -8t-151 -35t-119 -64t-76.5 -97t-27.5 -132z" />
    <glyph glyph-name="uni1EB0" unicode="&#x1eb0;" horiz-adv-x="1050" 
d="M561 1767l-6 -8l-283 187l82 92zM516 1552q-107 0 -162 53.5t-65 135.5l82 18q11 -89 41.5 -137.5t103.5 -48.5q38 0 65.5 14t43 41.5t24 58t13.5 72.5l81 -18q-10 -82 -65 -135.5t-162 -53.5zM1042 0h-153l-156 432l-237 -301q-62 -78 -132.5 -117t-136.5 -39
q-76 0 -129 47t-65.5 128.5t30.5 191.5l373 911l82 207zM559 244l166 211l-279 770l-321 -787q-38 -101 -24.5 -178.5t67 -124.5t127.5 -47q143 0 264 156z" />
    <glyph glyph-name="uni1EB1" unicode="&#x1eb1;" horiz-adv-x="980" 
d="M551 1458l-6 -8l-283 186l82 93zM506 1243q-107 0 -162 53.5t-65 135.5l81 18q5 -42 13.5 -72.5t24 -58t43 -41.5t65.5 -14q73 0 103.5 48.5t41.5 137.5l82 -18q-10 -82 -65 -135.5t-162 -53.5zM874 700v-702h-8l-127 129v152q-39 -143 -142.5 -220t-225.5 -77
q-129 0 -221.5 82.5t-92.5 226.5q0 100 52 174.5t147 118t215 64t268 20.5v133q0 134 -82 207t-202 73q-84 0 -165 -38.5t-138 -108.5l-21 18q66 78 172 127t213 49q73 0 135 -24t113 -73t80.5 -134t29.5 -197zM188 309q0 -134 68 -208t166 -74q58 0 113.5 26.5t101.5 76
t74 129.5t28 177v209q-96 2 -177 -8t-151 -35t-119 -64t-76.5 -97t-27.5 -132z" />
    <glyph glyph-name="uni1EB2" unicode="&#x1eb2;" horiz-adv-x="1050" 
d="M469 1962q0 42 24.5 66t57.5 24t57.5 -24.5t24.5 -69.5q0 -50 -38 -110t-79 -89l-4 4q28 32 25 62t-18 47.5t-32.5 42.5t-17.5 47zM516 1552q-107 0 -162 53.5t-65 135.5l82 18q11 -89 41.5 -137.5t103.5 -48.5q38 0 65.5 14t43 41.5t24 58t13.5 72.5l81 -18
q-10 -82 -65 -135.5t-162 -53.5zM1042 0h-153l-156 432l-237 -301q-62 -78 -132.5 -117t-136.5 -39q-76 0 -129 47t-65.5 128.5t30.5 191.5l373 911l82 207zM559 244l166 211l-279 770l-321 -787q-38 -101 -24.5 -178.5t67 -124.5t127.5 -47q143 0 264 156z" />
    <glyph glyph-name="uni1EB3" unicode="&#x1eb3;" horiz-adv-x="980" 
d="M459 1653q0 42 24.5 66t57.5 24t57.5 -24.5t24.5 -69.5q0 -50 -38 -110t-79 -89l-4 4q28 32 25 62t-18 47.5t-32.5 42.5t-17.5 47zM506 1243q-107 0 -162 53.5t-65 135.5l81 18q5 -42 13.5 -72.5t24 -58t43 -41.5t65.5 -14q73 0 103.5 48.5t41.5 137.5l82 -18
q-10 -82 -65 -135.5t-162 -53.5zM874 700v-702h-8l-127 129v152q-39 -143 -142.5 -220t-225.5 -77q-129 0 -221.5 82.5t-92.5 226.5q0 100 52 174.5t147 118t215 64t268 20.5v133q0 134 -82 207t-202 73q-84 0 -165 -38.5t-138 -108.5l-21 18q66 78 172 127t213 49
q73 0 135 -24t113 -73t80.5 -134t29.5 -197zM188 309q0 -134 68 -208t166 -74q58 0 113.5 26.5t101.5 76t74 129.5t28 177v209q-96 2 -177 -8t-151 -35t-119 -64t-76.5 -97t-27.5 -132z" />
    <glyph glyph-name="uni1EB4" unicode="&#x1eb4;" horiz-adv-x="1050" 
d="M748 1939q-26 -108 -113 -108q-52 0 -149 48t-136 48q-59 0 -80 -76q-3 26 2 43q24 109 113 109q52 0 149 -48t136 -48q59 0 80 75q3 -26 -2 -43zM516 1552q-107 0 -162 53.5t-65 135.5l82 18q11 -89 41.5 -137.5t103.5 -48.5q38 0 65.5 14t43 41.5t24 58t13.5 72.5
l81 -18q-10 -82 -65 -135.5t-162 -53.5zM1042 0h-153l-156 432l-237 -301q-62 -78 -132.5 -117t-136.5 -39q-76 0 -129 47t-65.5 128.5t30.5 191.5l373 911l82 207zM559 244l166 211l-279 770l-321 -787q-38 -101 -24.5 -178.5t67 -124.5t127.5 -47q143 0 264 156z" />
    <glyph glyph-name="uni1EB5" unicode="&#x1eb5;" horiz-adv-x="980" 
d="M737 1630q-26 -108 -112 -108q-52 0 -149 48t-136 48q-59 0 -80 -76q-3 26 2 43q24 109 113 109q52 0 148.5 -48.5t135.5 -48.5q59 0 80 76q3 -26 -2 -43zM506 1243q-107 0 -162 53.5t-65 135.5l81 18q5 -42 13.5 -72.5t24 -58t43 -41.5t65.5 -14q73 0 103.5 48.5
t41.5 137.5l82 -18q-10 -82 -65 -135.5t-162 -53.5zM874 700v-702h-8l-127 129v152q-39 -143 -142.5 -220t-225.5 -77q-129 0 -221.5 82.5t-92.5 226.5q0 100 52 174.5t147 118t215 64t268 20.5v133q0 134 -82 207t-202 73q-84 0 -165 -38.5t-138 -108.5l-21 18
q66 78 172 127t213 49q73 0 135 -24t113 -73t80.5 -134t29.5 -197zM188 309q0 -134 68 -208t166 -74q58 0 113.5 26.5t101.5 76t74 129.5t28 177v209q-96 2 -177 -8t-151 -35t-119 -64t-76.5 -97t-27.5 -132z" />
    <glyph glyph-name="uni1EB6" unicode="&#x1eb6;" horiz-adv-x="1050" 
d="M569 -315q0 -35 -25.5 -60.5t-60.5 -25.5q-34 0 -59 25.5t-25 60.5q0 22 13.5 49t27 45t43.5 55q29 -34 44.5 -54t28.5 -46.5t13 -48.5zM516 1552q-107 0 -162 53.5t-65 135.5l82 18q11 -89 41.5 -137.5t103.5 -48.5q38 0 65.5 14t43 41.5t24 58t13.5 72.5l81 -18
q-10 -82 -65 -135.5t-162 -53.5zM1042 0h-153l-156 432l-237 -301q-62 -78 -132.5 -117t-136.5 -39q-76 0 -129 47t-65.5 128.5t30.5 191.5l373 911l82 207zM559 244l166 211l-279 770l-321 -787q-38 -101 -24.5 -178.5t67 -124.5t127.5 -47q143 0 264 156z" />
    <glyph glyph-name="uni1EB7" unicode="&#x1eb7;" horiz-adv-x="980" 
d="M590 -315q0 -35 -25.5 -60.5t-60.5 -25.5q-34 0 -59 25.5t-25 60.5q0 22 13.5 49t27 45t43.5 55q29 -34 44.5 -54t28.5 -46.5t13 -48.5zM506 1243q-107 0 -162 53.5t-65 135.5l81 18q5 -42 13.5 -72.5t24 -58t43 -41.5t65.5 -14q73 0 103.5 48.5t41.5 137.5l82 -18
q-10 -82 -65 -135.5t-162 -53.5zM874 700v-702h-8l-127 129v152q-39 -143 -142.5 -220t-225.5 -77q-129 0 -221.5 82.5t-92.5 226.5q0 100 52 174.5t147 118t215 64t268 20.5v133q0 134 -82 207t-202 73q-84 0 -165 -38.5t-138 -108.5l-21 18q66 78 172 127t213 49
q73 0 135 -24t113 -73t80.5 -134t29.5 -197zM188 309q0 -134 68 -208t166 -74q58 0 113.5 26.5t101.5 76t74 129.5t28 177v209q-96 2 -177 -8t-151 -35t-119 -64t-76.5 -97t-27.5 -132z" />
    <glyph glyph-name="uni1EB8" unicode="&#x1eb8;" horiz-adv-x="997" 
d="M651 -315q0 -35 -25.5 -60.5t-60.5 -25.5q-34 0 -59 25.5t-25 60.5q0 22 13.5 49t27 45t43.5 55q29 -34 44.5 -54t28.5 -46.5t13 -48.5zM123 0v1430h844v-19h-516q-119 0 -152.5 -22.5t-36.5 -108.5v-535h492v-18h-492v-577q3 -86 36.5 -109t152.5 -23h540v-18h-868z" />
    <glyph glyph-name="uni1EB9" unicode="&#x1eb9;" horiz-adv-x="1114" 
d="M651 -315q0 -35 -25.5 -60.5t-60.5 -25.5q-34 0 -59 25.5t-25 60.5q0 22 13.5 49t27 45t43.5 55q29 -34 44.5 -54t28.5 -46.5t13 -48.5zM1061 424l6 -2q-17 -86 -54 -159t-86.5 -124.5t-110.5 -87.5t-126 -53.5t-133 -17.5q-75 0 -145 21.5t-132.5 67t-109 110t-73.5 156
t-27 200.5q0 121 30 220t80 165.5t117 112t139 65.5t148 20q107 0 199 -38.5t150 -113t58 -169.5l-821 2q-12 -58 -12 -105q0 -153 38 -270.5t103.5 -186.5t144 -103t166.5 -34q150 0 279.5 90t171.5 234zM836 883q0 95 -79.5 152t-193.5 57q-120 0 -228 -69t-159 -202
l590 2q43 0 56.5 13t13.5 47z" />
    <glyph glyph-name="uni1EBA" unicode="&#x1eba;" horiz-adv-x="997" 
d="M508 1774q0 42 24.5 66t57.5 24t57.5 -25t24.5 -70q0 -50 -38 -109.5t-79 -88.5l-4 4q21 27 24.5 50.5t-7 41.5t-23.5 34t-25 35.5t-12 37.5zM123 0v1430h844v-19h-516q-119 0 -152.5 -22.5t-36.5 -108.5v-535h492v-18h-492v-577q3 -86 36.5 -109t152.5 -23h540v-18h-868
z" />
    <glyph glyph-name="uni1EBB" unicode="&#x1ebb;" horiz-adv-x="1114" 
d="M535 1446q0 42 24 66t57 24t57.5 -24.5t24.5 -69.5q0 -50 -37.5 -110t-78.5 -89l-4 4q28 32 25 62t-18 47.5t-32.5 42.5t-17.5 47zM1061 424l6 -2q-17 -86 -54 -159t-86.5 -124.5t-110.5 -87.5t-126 -53.5t-133 -17.5q-75 0 -145 21.5t-132.5 67t-109 110t-73.5 156
t-27 200.5q0 121 30 220t80 165.5t117 112t139 65.5t148 20q107 0 199 -38.5t150 -113t58 -169.5l-821 2q-12 -58 -12 -105q0 -153 38 -270.5t103.5 -186.5t144 -103t166.5 -34q150 0 279.5 90t171.5 234zM836 883q0 95 -79.5 152t-193.5 57q-120 0 -228 -69t-159 -202
l590 2q43 0 56.5 13t13.5 47z" />
    <glyph glyph-name="uni1EBC" unicode="&#x1ebc;" horiz-adv-x="997" 
d="M784 1679q-26 -108 -112 -108q-52 0 -149 48t-136 48q-59 0 -80 -76q-3 26 2 43q24 109 113 109q52 0 149 -48t136 -48q58 0 79 75q3 -26 -2 -43zM123 0v1430h844v-19h-516q-119 0 -152.5 -22.5t-36.5 -108.5v-535h492v-18h-492v-577q3 -86 36.5 -109t152.5 -23h540v-18
h-868z" />
    <glyph glyph-name="uni1EBD" unicode="&#x1ebd;" horiz-adv-x="1114" 
d="M799 1372q-26 -108 -113 -108q-52 0 -149 48t-136 48q-58 0 -79 -76q-3 26 2 43q24 109 112 109q52 0 149 -48.5t136 -48.5q59 0 80 76q3 -26 -2 -43zM1061 424l6 -2q-17 -86 -54 -159t-86.5 -124.5t-110.5 -87.5t-126 -53.5t-133 -17.5q-75 0 -145 21.5t-132.5 67
t-109 110t-73.5 156t-27 200.5q0 121 30 220t80 165.5t117 112t139 65.5t148 20q107 0 199 -38.5t150 -113t58 -169.5l-821 2q-12 -58 -12 -105q0 -153 38 -270.5t103.5 -186.5t144 -103t166.5 -34q150 0 279.5 90t171.5 234zM836 883q0 95 -79.5 152t-193.5 57
q-120 0 -228 -69t-159 -202l590 2q43 0 56.5 13t13.5 47z" />
    <glyph glyph-name="uni1EBE" unicode="&#x1ebe;" horiz-adv-x="997" 
d="M725 1714l-6 8l207 271l82 -92zM446 18h545v-16h-868v1430h844v-19h-516q-119 0 -152.5 -22.5t-36.5 -108.5v-534h492v-19h-492v-577q3 -86 36.5 -109t152.5 -23zM553 1800l227 -239l-10 -11l-225 125l-226 -123l-8 9l230 239h12z" />
    <glyph glyph-name="uni1EBF" unicode="&#x1ebf;" horiz-adv-x="1114" 
d="M739 1407l-6 8l207 271l82 -93zM1061 424h6q-21 -107 -72.5 -193t-121 -140t-150.5 -82.5t-166 -28.5q-75 0 -145 21.5t-132.5 67t-109 110.5t-73.5 156.5t-27 199.5q0 121 30 220t80 165.5t117 112t139 65.5t148 20q107 0 199 -38t150 -112.5t58 -170.5l-821 2
q-12 -54 -12 -103q0 -124 25.5 -225t68 -168.5t101 -113.5t123 -66.5t134.5 -20.5q150 0 279.5 89.5t171.5 232.5zM836 883q0 95 -80 153t-193 58q-120 0 -228 -69t-159 -202h590q43 1 56.5 14t13.5 46zM567 1493l228 -240l-11 -10l-225 125l-225 -123l-8 8l229 240h12z" />
    <glyph glyph-name="uni1EC0" unicode="&#x1ec0;" horiz-adv-x="997" 
d="M834 1722l-7 -8l-282 187l82 92zM446 18h545v-16h-868v1430h844v-19h-516q-119 0 -152.5 -22.5t-36.5 -108.5v-534h492v-19h-492v-577q3 -86 36.5 -109t152.5 -23zM553 1800l227 -239l-10 -11l-225 125l-226 -123l-8 9l230 239h12z" />
    <glyph glyph-name="uni1EC1" unicode="&#x1ec1;" horiz-adv-x="1114" 
d="M848 1415l-6 -8l-283 186l82 93zM1061 424h6q-21 -107 -72.5 -193t-121 -140t-150.5 -82.5t-166 -28.5q-75 0 -145 21.5t-132.5 67t-109 110.5t-73.5 156.5t-27 199.5q0 121 30 220t80 165.5t117 112t139 65.5t148 20q107 0 199 -38t150 -112.5t58 -170.5l-821 2
q-12 -54 -12 -103q0 -124 25.5 -225t68 -168.5t101 -113.5t123 -66.5t134.5 -20.5q150 0 279.5 89.5t171.5 232.5zM836 883q0 95 -80 153t-193 58q-120 0 -228 -69t-159 -202h590q43 1 56.5 14t13.5 46zM567 1493l228 -240l-11 -10l-225 125l-225 -123l-8 8l229 240h12z" />
    <glyph glyph-name="uni1EC2" unicode="&#x1ec2;" horiz-adv-x="997" 
d="M702 1903q0 42 24.5 66t57.5 24t57.5 -25t24.5 -70q0 -50 -37.5 -109.5t-78.5 -88.5l-5 4q21 27 24.5 50.5t-7 41.5t-23.5 34t-25 35.5t-12 37.5zM446 18h545v-16h-868v1430h844v-19h-516q-119 0 -152.5 -22.5t-36.5 -108.5v-534h492v-19h-492v-577q3 -86 36.5 -109
t152.5 -23zM553 1800l227 -239l-10 -11l-225 125l-226 -123l-8 9l230 239h12z" />
    <glyph glyph-name="uni1EC3" unicode="&#x1ec3;" horiz-adv-x="1114" 
d="M717 1595q0 42 24.5 66.5t57.5 24.5t57.5 -25t24.5 -70q0 -50 -38 -109.5t-79 -88.5l-4 4q28 32 25 62t-18 47t-32.5 42t-17.5 47zM1061 424h6q-21 -107 -72.5 -193t-121 -140t-150.5 -82.5t-166 -28.5q-75 0 -145 21.5t-132.5 67t-109 110.5t-73.5 156.5t-27 199.5
q0 121 30 220t80 165.5t117 112t139 65.5t148 20q107 0 199 -38t150 -112.5t58 -170.5l-821 2q-12 -54 -12 -103q0 -124 25.5 -225t68 -168.5t101 -113.5t123 -66.5t134.5 -20.5q150 0 279.5 89.5t171.5 232.5zM836 883q0 95 -80 153t-193 58q-120 0 -228 -69t-159 -202h590
q43 1 56.5 14t13.5 46zM567 1493l228 -240l-11 -10l-225 125l-225 -123l-8 8l229 240h12z" />
    <glyph glyph-name="uni1EC4" unicode="&#x1ec4;" horiz-adv-x="997" 
d="M782 1958q-27 -109 -112 -109q-52 0 -149 48.5t-136 48.5q-59 0 -80 -76q-3 26 2 43q24 108 113 108q52 0 149 -48t136 -48q58 0 79 76q3 -26 -2 -43zM446 18h545v-16h-868v1430h844v-19h-516q-119 0 -152.5 -22.5t-36.5 -108.5v-534h492v-19h-492v-577q3 -86 36.5 -109
t152.5 -23zM553 1800l227 -239l-10 -11l-225 125l-226 -123l-8 9l230 239h12z" />
    <glyph glyph-name="uni1EC5" unicode="&#x1ec5;" horiz-adv-x="1114" 
d="M797 1651q-27 -109 -113 -109q-52 0 -149 48t-136 48q-59 0 -80 -75q-3 23 3 43q24 108 112 108q52 0 149 -48t136 -48q59 0 80 76q3 -26 -2 -43zM1061 424h6q-21 -107 -72.5 -193t-121 -140t-150.5 -82.5t-166 -28.5q-75 0 -145 21.5t-132.5 67t-109 110.5t-73.5 156.5
t-27 199.5q0 121 30 220t80 165.5t117 112t139 65.5t148 20q107 0 199 -38t150 -112.5t58 -170.5l-821 2q-12 -54 -12 -103q0 -124 25.5 -225t68 -168.5t101 -113.5t123 -66.5t134.5 -20.5q150 0 279.5 89.5t171.5 232.5zM836 883q0 95 -80 153t-193 58q-120 0 -228 -69
t-159 -202h590q43 1 56.5 14t13.5 46zM567 1493l228 -240l-11 -10l-225 125l-225 -123l-8 8l229 240h12z" />
    <glyph glyph-name="uni1EC6" unicode="&#x1ec6;" horiz-adv-x="997" 
d="M651 -315q0 -35 -25.5 -60.5t-60.5 -25.5q-34 0 -59 25.5t-25 60.5q0 22 13.5 49t27 45t43.5 55q29 -34 44.5 -54t28.5 -46.5t13 -48.5zM446 18h545v-16h-868v1430h844v-19h-516q-119 0 -152.5 -22.5t-36.5 -108.5v-534h492v-19h-492v-577q3 -86 36.5 -109t152.5 -23z
M553 1800l227 -239l-10 -11l-225 125l-226 -123l-8 9l230 239h12z" />
    <glyph glyph-name="uni1EC7" unicode="&#x1ec7;" horiz-adv-x="1114" 
d="M651 -315q0 -35 -25.5 -60.5t-60.5 -25.5q-34 0 -59 25.5t-25 60.5q0 22 13.5 49t27 45t43.5 55q29 -34 44.5 -54t28.5 -46.5t13 -48.5zM1061 424h6q-21 -107 -72.5 -193t-121 -140t-150.5 -82.5t-166 -28.5q-75 0 -145 21.5t-132.5 67t-109 110.5t-73.5 156.5t-27 199.5
q0 121 30 220t80 165.5t117 112t139 65.5t148 20q107 0 199 -38t150 -112.5t58 -170.5l-821 2q-12 -54 -12 -103q0 -124 25.5 -225t68 -168.5t101 -113.5t123 -66.5t134.5 -20.5q150 0 279.5 89.5t171.5 232.5zM836 883q0 95 -80 153t-193 58q-120 0 -228 -69t-159 -202h590
q43 1 56.5 14t13.5 46zM567 1493l228 -240l-11 -10l-225 125l-225 -123l-8 8l229 240h12z" />
    <glyph glyph-name="uni1EC8" unicode="&#x1ec8;" horiz-adv-x="385" 
d="M145 1774q0 42 24.5 66t57.5 24t57.5 -25t24.5 -70q0 -50 -37.5 -109.5t-78.5 -88.5l-5 4q28 32 25 62t-18 47.5t-32.5 42.5t-17.5 47zM262 0h-139v1430h139v-1430z" />
    <glyph glyph-name="uni1EC9" unicode="&#x1ec9;" horiz-adv-x="364" 
d="M143 1446q0 42 24.5 66t57.5 24t57.5 -24.5t24.5 -69.5q0 -50 -38 -110t-79 -89l-4 4q28 32 25 62t-18 47.5t-32.5 42.5t-17.5 47zM113 1040l137 76v-1116h-137v1040z" />
    <glyph glyph-name="uni1ECA" unicode="&#x1eca;" horiz-adv-x="385" 
d="M279 -315q0 -35 -25.5 -60.5t-60.5 -25.5q-34 0 -59 25.5t-25 60.5q0 22 13.5 49t27 45t43.5 55q29 -34 44.5 -54t28.5 -46.5t13 -48.5zM262 0h-139v1430h139v-1430z" />
    <glyph glyph-name="uni1ECB" unicode="&#x1ecb;" horiz-adv-x="364" 
d="M266 -315q0 -35 -25.5 -60.5t-60.5 -25.5q-34 0 -59 25.5t-25 60.5q0 22 13.5 49t27 45t43.5 55q29 -34 44.5 -54t28.5 -46.5t13 -48.5zM266 1427q0 -32 -21 -64.5t-65 -84.5q-30 37 -43.5 55t-27 45t-13.5 49q0 35 25 60.5t59 25.5q35 0 60.5 -25.5t25.5 -60.5zM113 0
v1040l137 76v-1116h-137z" />
    <glyph glyph-name="uni1ECC" unicode="&#x1ecc;" 
d="M846 -315q0 -35 -25.5 -60.5t-60.5 -25.5q-34 0 -59 25.5t-25 60.5q0 22 13.5 49t27 45t43.5 55q29 -34 44.5 -54t28.5 -46.5t13 -48.5zM752 1460q158 0 290 -60.5t218.5 -163t134 -237.5t47.5 -284t-47.5 -283.5t-134 -237.5t-218.5 -164t-290 -61t-290 61t-218 164
t-133.5 237.5t-47.5 283.5t47.5 283.5t133.5 237.5t218 163.5t290 60.5zM872 27q227 -7 345 170q105 156 95 398q-11 245 -131 454q-129 224 -334 309q-99 41 -210 45q-222 8 -343 -167q-107 -154 -101 -394q5 -245 122 -454q127 -225 335 -313q105 -44 222 -48z" />
    <glyph glyph-name="uni1ECD" unicode="&#x1ecd;" horiz-adv-x="1185" 
d="M678 -315q0 -35 -25.5 -60.5t-60.5 -25.5q-34 0 -59 25.5t-25 60.5q0 22 13.5 49t27 45t43.5 55q29 -34 44.5 -54t28.5 -46.5t13 -48.5zM592 1116q122 0 223 -46t167 -125t102 -181.5t36 -216.5q0 -113 -36 -215.5t-102 -181t-167 -124.5t-223 -46q-121 0 -221.5 46
t-166.5 124.5t-102 181t-36 215.5q0 114 36 216.5t102 181.5t166.5 125t221.5 46zM188 670q-2 -125 26 -231.5t76 -181t111 -127.5t131.5 -78t137.5 -25q135 0 228.5 94t96.5 264q2 128 -26 240.5t-77 192t-113 137.5t-133.5 86t-139.5 28q-133 0 -223.5 -102.5
t-94.5 -296.5z" />
    <glyph glyph-name="uni1ECE" unicode="&#x1ece;" 
d="M715 1774q0 42 24.5 66t57.5 24t57.5 -25t24.5 -70q0 -50 -38 -109.5t-79 -88.5l-4 4q28 32 25 62t-18 47.5t-32.5 42.5t-17.5 47zM752 1460q158 0 290 -60.5t218.5 -163t134 -237.5t47.5 -284t-47.5 -283.5t-134 -237.5t-218.5 -164t-290 -61t-290 61t-218 164
t-133.5 237.5t-47.5 283.5t47.5 283.5t133.5 237.5t218 163.5t290 60.5zM872 27q227 -7 345 170q105 156 95 398q-11 245 -131 454q-129 224 -334 309q-99 41 -210 45q-222 8 -343 -167q-107 -154 -101 -394q5 -245 122 -454q127 -225 335 -313q105 -44 222 -48z" />
    <glyph glyph-name="uni1ECF" unicode="&#x1ecf;" horiz-adv-x="1185" 
d="M537 1446q0 42 24 66t57 24t57.5 -24.5t24.5 -69.5q0 -50 -37.5 -110t-78.5 -89l-4 4q28 32 25 62t-18 47.5t-32.5 42.5t-17.5 47zM592 1116q122 0 223 -46t167 -125t102 -181.5t36 -216.5q0 -113 -36 -215.5t-102 -181t-167 -124.5t-223 -46q-121 0 -221.5 46
t-166.5 124.5t-102 181t-36 215.5q0 114 36 216.5t102 181.5t166.5 125t221.5 46zM188 670q-2 -125 26 -231.5t76 -181t111 -127.5t131.5 -78t137.5 -25q135 0 228.5 94t96.5 264q2 128 -26 240.5t-77 192t-113 137.5t-133.5 86t-139.5 28q-133 0 -223.5 -102.5
t-94.5 -296.5z" />
    <glyph glyph-name="uni1ED0" unicode="&#x1ed0;" 
d="M940 1714l-6 8l207 271l82 -92zM752 1462q158 0 290 -60.5t218.5 -163t134 -237.5t47.5 -284t-47.5 -284t-134 -238t-218.5 -163.5t-290 -60.5q-127 0 -238 39.5t-192.5 109t-140.5 163t-88.5 204.5t-29.5 230q0 149 47.5 283.5t133.5 237.5t218 163.5t290 60.5zM872 29
q227 -8 345 169q105 156 95 399q-11 244 -131 453q-129 224 -335 310q-99 41 -209 45q-222 7 -343 -168q-107 -154 -101 -394q5 -245 123 -454q126 -225 336 -313q103 -43 220 -47zM768 1800l227 -239l-10 -11l-225 125l-225 -123l-9 9l230 239h12z" />
    <glyph glyph-name="uni1ED1" unicode="&#x1ed1;" horiz-adv-x="1185" 
d="M772 1407l-6 8l207 271l82 -93zM592 1118q122 0 223 -46t167 -125t102 -181.5t36 -216.5t-36 -216.5t-102 -181.5t-167 -125t-223 -46q-121 0 -221.5 46t-166.5 125t-102 181.5t-36 216.5t36 216.5t102 181.5t166.5 125t221.5 46zM188 672q-2 -125 26 -231.5t76 -181
t111 -127.5t131.5 -78t137.5 -25q135 0 228.5 94t96.5 264q2 127 -26 239t-77 191.5t-112.5 137.5t-133.5 86t-140 28q-63 0 -119 -24.5t-100 -72t-70.5 -125t-28.5 -175.5zM600 1493l227 -240l-10 -10l-225 125l-225 -123l-9 8l230 240h12z" />
    <glyph glyph-name="uni1ED2" unicode="&#x1ed2;" 
d="M1049 1722l-7 -8l-282 187l82 92zM752 1462q158 0 290 -60.5t218.5 -163t134 -237.5t47.5 -284t-47.5 -284t-134 -238t-218.5 -163.5t-290 -60.5q-127 0 -238 39.5t-192.5 109t-140.5 163t-88.5 204.5t-29.5 230q0 149 47.5 283.5t133.5 237.5t218 163.5t290 60.5z
M872 29q227 -8 345 169q105 156 95 399q-11 244 -131 453q-129 224 -335 310q-99 41 -209 45q-222 7 -343 -168q-107 -154 -101 -394q5 -245 123 -454q126 -225 336 -313q103 -43 220 -47zM768 1800l227 -239l-10 -11l-225 125l-225 -123l-9 9l230 239h12z" />
    <glyph glyph-name="uni1ED3" unicode="&#x1ed3;" horiz-adv-x="1185" 
d="M881 1415l-7 -8l-282 186l82 93zM592 1118q122 0 223 -46t167 -125t102 -181.5t36 -216.5t-36 -216.5t-102 -181.5t-167 -125t-223 -46q-121 0 -221.5 46t-166.5 125t-102 181.5t-36 216.5t36 216.5t102 181.5t166.5 125t221.5 46zM188 672q-2 -125 26 -231.5t76 -181
t111 -127.5t131.5 -78t137.5 -25q135 0 228.5 94t96.5 264q2 127 -26 239t-77 191.5t-112.5 137.5t-133.5 86t-140 28q-63 0 -119 -24.5t-100 -72t-70.5 -125t-28.5 -175.5zM600 1493l227 -240l-10 -10l-225 125l-225 -123l-9 8l230 240h12z" />
    <glyph glyph-name="uni1ED4" unicode="&#x1ed4;" 
d="M918 1903q0 42 24 66t57 24t57.5 -25t24.5 -70q0 -50 -37.5 -109.5t-78.5 -88.5l-4 4q21 27 24.5 50.5t-7 41.5t-23.5 34t-25 35.5t-12 37.5zM752 1462q158 0 290 -60.5t218.5 -163t134 -237.5t47.5 -284t-47.5 -284t-134 -238t-218.5 -163.5t-290 -60.5
q-127 0 -238 39.5t-192.5 109t-140.5 163t-88.5 204.5t-29.5 230q0 149 47.5 283.5t133.5 237.5t218 163.5t290 60.5zM872 29q227 -8 345 169q105 156 95 399q-11 244 -131 453q-129 224 -335 310q-99 41 -209 45q-222 7 -343 -168q-107 -154 -101 -394q5 -245 123 -454
q126 -225 336 -313q103 -43 220 -47zM768 1800l227 -239l-10 -11l-225 125l-225 -123l-9 9l230 239h12z" />
    <glyph glyph-name="uni1ED5" unicode="&#x1ed5;" horiz-adv-x="1185" 
d="M750 1595q0 42 24 66.5t57 24.5t57.5 -25t24.5 -70q0 -50 -37.5 -109.5t-78.5 -88.5l-4 4q21 27 24.5 50.5t-7 41t-23.5 33.5t-25 35.5t-12 37.5zM592 1118q122 0 223 -46t167 -125t102 -181.5t36 -216.5t-36 -216.5t-102 -181.5t-167 -125t-223 -46q-121 0 -221.5 46
t-166.5 125t-102 181.5t-36 216.5t36 216.5t102 181.5t166.5 125t221.5 46zM188 672q-2 -125 26 -231.5t76 -181t111 -127.5t131.5 -78t137.5 -25q135 0 228.5 94t96.5 264q2 127 -26 239t-77 191.5t-112.5 137.5t-133.5 86t-140 28q-63 0 -119 -24.5t-100 -72t-70.5 -125
t-28.5 -175.5zM600 1493l227 -240l-10 -10l-225 125l-225 -123l-9 8l230 240h12z" />
    <glyph glyph-name="uni1ED6" unicode="&#x1ed6;" 
d="M997 1958q-27 -109 -112 -109q-52 0 -149 48.5t-136 48.5q-59 0 -80 -76q-3 26 2 43q24 108 113 108q52 0 149 -48t136 -48q58 0 79 76q3 -26 -2 -43zM752 1462q158 0 290 -60.5t218.5 -163t134 -237.5t47.5 -284t-47.5 -284t-134 -238t-218.5 -163.5t-290 -60.5
q-127 0 -238 39.5t-192.5 109t-140.5 163t-88.5 204.5t-29.5 230q0 149 47.5 283.5t133.5 237.5t218 163.5t290 60.5zM872 29q227 -8 345 169q105 156 95 399q-11 244 -131 453q-129 224 -335 310q-99 41 -209 45q-222 7 -343 -168q-107 -154 -101 -394q5 -245 123 -454
q126 -225 336 -313q103 -43 220 -47zM768 1800l227 -239l-10 -11l-225 125l-225 -123l-9 9l230 239h12z" />
    <glyph glyph-name="uni1ED7" unicode="&#x1ed7;" horiz-adv-x="1185" 
d="M829 1651q-27 -109 -112 -109q-52 0 -149 48t-136 48q-59 0 -80 -75q-3 26 2 43q24 108 113 108q52 0 149 -48t136 -48q58 0 79 76q3 -26 -2 -43zM592 1118q122 0 223 -46t167 -125t102 -181.5t36 -216.5t-36 -216.5t-102 -181.5t-167 -125t-223 -46q-121 0 -221.5 46
t-166.5 125t-102 181.5t-36 216.5t36 216.5t102 181.5t166.5 125t221.5 46zM188 672q-2 -125 26 -231.5t76 -181t111 -127.5t131.5 -78t137.5 -25q135 0 228.5 94t96.5 264q2 127 -26 239t-77 191.5t-112.5 137.5t-133.5 86t-140 28q-63 0 -119 -24.5t-100 -72t-70.5 -125
t-28.5 -175.5zM600 1493l227 -240l-10 -10l-225 125l-225 -123l-9 8l230 240h12z" />
    <glyph glyph-name="uni1ED8" unicode="&#x1ed8;" 
d="M846 -315q0 -35 -25.5 -60.5t-60.5 -25.5q-34 0 -59 25.5t-25 60.5q0 22 13.5 49t27 45t43.5 55q29 -34 44.5 -54t28.5 -46.5t13 -48.5zM752 1462q158 0 290 -60.5t218.5 -163t134 -237.5t47.5 -284t-47.5 -284t-134 -238t-218.5 -163.5t-290 -60.5q-127 0 -238 39.5
t-192.5 109t-140.5 163t-88.5 204.5t-29.5 230q0 149 47.5 283.5t133.5 237.5t218 163.5t290 60.5zM872 29q227 -8 345 169q105 156 95 399q-11 244 -131 453q-129 224 -335 310q-99 41 -209 45q-222 7 -343 -168q-107 -154 -101 -394q5 -245 123 -454q126 -225 336 -313
q103 -43 220 -47zM768 1800l227 -239l-10 -11l-225 125l-225 -123l-9 9l230 239h12z" />
    <glyph glyph-name="uni1ED9" unicode="&#x1ed9;" horiz-adv-x="1185" 
d="M678 -315q0 -35 -25.5 -60.5t-60.5 -25.5q-34 0 -59 25.5t-25 60.5q0 22 13.5 49t27 45t43.5 55q29 -34 44.5 -54t28.5 -46.5t13 -48.5zM592 1118q122 0 223 -46t167 -125t102 -181.5t36 -216.5t-36 -216.5t-102 -181.5t-167 -125t-223 -46q-121 0 -221.5 46t-166.5 125
t-102 181.5t-36 216.5t36 216.5t102 181.5t166.5 125t221.5 46zM188 672q-2 -125 26 -231.5t76 -181t111 -127.5t131.5 -78t137.5 -25q135 0 228.5 94t96.5 264q2 127 -26 239t-77 191.5t-112.5 137.5t-133.5 86t-140 28q-63 0 -119 -24.5t-100 -72t-70.5 -125t-28.5 -175.5
zM600 1493l227 -240l-10 -10l-225 125l-225 -123l-9 8l230 240h12z" />
    <glyph glyph-name="uni1EDA" unicode="&#x1eda;" 
d="M664 1571l-7 8l207 270l82 -92zM752 1460q236 0 411 -135q47 17 64.5 35.5t10 37t-22 36t-29.5 39.5t-15 40q0 42 24.5 66.5t57.5 24.5t57.5 -25t24.5 -70q0 -57 -41 -115t-114 -81q125 -104 193.5 -260.5t68.5 -337.5q0 -149 -47.5 -283.5t-134 -237.5t-218.5 -164
t-290 -61t-290 61t-218 164t-133.5 237.5t-47.5 283.5t47.5 283.5t133.5 237.5t218 163.5t290 60.5zM872 27q227 -7 345 170q105 156 95 398q-11 245 -131 454q-129 224 -334 309q-99 41 -210 45q-222 8 -343 -167q-107 -154 -101 -394q5 -245 122 -454q127 -225 335 -313
q105 -44 222 -48z" />
    <glyph glyph-name="uni1EDB" unicode="&#x1edb;" horiz-adv-x="1185" 
d="M475 1243l-6 8l207 271l82 -72zM592 1116q186 0 321 -106q46 17 62.5 35t9 36.5t-22 36t-29.5 39t-15 39.5q0 42 24 66t57 24t57.5 -24.5t24.5 -69.5q0 -55 -41 -112.5t-112 -82.5q93 -79 142.5 -197t49.5 -253q0 -113 -36 -215.5t-102 -181t-167 -124.5t-223 -46
q-121 0 -221.5 46t-166.5 124.5t-102 181t-36 215.5q0 114 36 216.5t102 181.5t166.5 125t221.5 46zM188 670q-2 -125 26 -231.5t76 -181t111 -127.5t131.5 -78t137.5 -25q135 0 228.5 94t96.5 264q2 128 -26 240.5t-77 192t-113 137.5t-133.5 86t-139.5 28
q-133 0 -223.5 -102.5t-94.5 -296.5z" />
    <glyph glyph-name="uni1EDC" unicode="&#x1edc;" 
d="M825 1579l-6 -8l-282 186l81 92zM752 1460q236 0 411 -135q47 17 64.5 35.5t10 37t-22 36t-29.5 39.5t-15 40q0 42 24.5 66.5t57.5 24.5t57.5 -25t24.5 -70q0 -57 -41 -115t-114 -81q125 -104 193.5 -260.5t68.5 -337.5q0 -149 -47.5 -283.5t-134 -237.5t-218.5 -164
t-290 -61t-290 61t-218 164t-133.5 237.5t-47.5 283.5t47.5 283.5t133.5 237.5t218 163.5t290 60.5zM872 27q227 -7 345 170q105 156 95 398q-11 245 -131 454q-129 224 -334 309q-99 41 -210 45q-222 8 -343 -167q-107 -154 -101 -394q5 -245 122 -454q127 -225 335 -313
q105 -44 222 -48z" />
    <glyph glyph-name="uni1EDD" unicode="&#x1edd;" horiz-adv-x="1185" 
d="M659 1251l-6 -8l-282 187l82 92zM592 1116q186 0 321 -106q46 17 62.5 35t9 36.5t-22 36t-29.5 39t-15 39.5q0 42 24 66t57 24t57.5 -24.5t24.5 -69.5q0 -55 -41 -112.5t-112 -82.5q93 -79 142.5 -197t49.5 -253q0 -113 -36 -215.5t-102 -181t-167 -124.5t-223 -46
q-121 0 -221.5 46t-166.5 124.5t-102 181t-36 215.5q0 114 36 216.5t102 181.5t166.5 125t221.5 46zM188 670q-2 -125 26 -231.5t76 -181t111 -127.5t131.5 -78t137.5 -25q135 0 228.5 94t96.5 264q2 128 -26 240.5t-77 192t-113 137.5t-133.5 86t-139.5 28
q-133 0 -223.5 -102.5t-94.5 -296.5z" />
    <glyph glyph-name="uni1EDE" unicode="&#x1ede;" 
d="M715 1774q0 42 24.5 66t57.5 24t57.5 -25t24.5 -70q0 -50 -38 -109.5t-79 -88.5l-4 4q28 32 25 62t-18 47.5t-32.5 42.5t-17.5 47zM752 1460q236 0 411 -135q47 17 64.5 35.5t10 37t-22 36t-29.5 39.5t-15 40q0 42 24.5 66.5t57.5 24.5t57.5 -25t24.5 -70q0 -57 -41 -115
t-114 -81q125 -104 193.5 -260.5t68.5 -337.5q0 -149 -47.5 -283.5t-134 -237.5t-218.5 -164t-290 -61t-290 61t-218 164t-133.5 237.5t-47.5 283.5t47.5 283.5t133.5 237.5t218 163.5t290 60.5zM872 27q227 -7 345 170q105 156 95 398q-11 245 -131 454q-129 224 -334 309
q-99 41 -210 45q-222 8 -343 -167q-107 -154 -101 -394q5 -245 122 -454q127 -225 335 -313q105 -44 222 -48z" />
    <glyph glyph-name="uni1EDF" unicode="&#x1edf;" horiz-adv-x="1185" 
d="M537 1446q0 42 24 66t57 24t57.5 -24.5t24.5 -69.5q0 -50 -37.5 -110t-78.5 -89l-4 4q28 32 25 62t-18 47.5t-32.5 42.5t-17.5 47zM592 1116q186 0 321 -106q46 17 62.5 35t9 36.5t-22 36t-29.5 39t-15 39.5q0 42 24 66t57 24t57.5 -24.5t24.5 -69.5q0 -55 -41 -112.5
t-112 -82.5q93 -79 142.5 -197t49.5 -253q0 -113 -36 -215.5t-102 -181t-167 -124.5t-223 -46q-121 0 -221.5 46t-166.5 124.5t-102 181t-36 215.5q0 114 36 216.5t102 181.5t166.5 125t221.5 46zM188 670q-2 -125 26 -231.5t76 -181t111 -127.5t131.5 -78t137.5 -25
q135 0 228.5 94t96.5 264q2 128 -26 240.5t-77 192t-113 137.5t-133.5 86t-139.5 28q-133 0 -223.5 -102.5t-94.5 -296.5z" />
    <glyph glyph-name="uni1EE0" unicode="&#x1ee0;" 
d="M967 1679q-26 -108 -113 -108q-52 0 -149 48t-136 48q-59 0 -80 -76q-3 23 3 43q24 109 112 109q52 0 149 -48t136 -48q59 0 80 75q3 -26 -2 -43zM752 1460q236 0 411 -135q47 17 64.5 35.5t10 37t-22 36t-29.5 39.5t-15 40q0 42 24.5 66.5t57.5 24.5t57.5 -25t24.5 -70
q0 -57 -41 -115t-114 -81q125 -104 193.5 -260.5t68.5 -337.5q0 -149 -47.5 -283.5t-134 -237.5t-218.5 -164t-290 -61t-290 61t-218 164t-133.5 237.5t-47.5 283.5t47.5 283.5t133.5 237.5t218 163.5t290 60.5zM872 27q227 -7 345 170q105 156 95 398q-11 245 -131 454
q-129 224 -334 309q-99 41 -210 45q-222 8 -343 -167q-107 -154 -101 -394q5 -245 122 -454q127 -225 335 -313q105 -44 222 -48z" />
    <glyph glyph-name="uni1EE1" unicode="&#x1ee1;" horiz-adv-x="1185" 
d="M782 1372q-26 -108 -112 -108q-52 0 -149 48t-136 48q-59 0 -80 -76q-3 26 2 43q24 109 113 109q52 0 149 -48.5t136 -48.5q58 0 79 76q3 -26 -2 -43zM592 1116q186 0 321 -106q46 17 62.5 35t9 36.5t-22 36t-29.5 39t-15 39.5q0 42 24 66t57 24t57.5 -24.5t24.5 -69.5
q0 -55 -41 -112.5t-112 -82.5q93 -79 142.5 -197t49.5 -253q0 -113 -36 -215.5t-102 -181t-167 -124.5t-223 -46q-121 0 -221.5 46t-166.5 124.5t-102 181t-36 215.5q0 114 36 216.5t102 181.5t166.5 125t221.5 46zM188 670q-2 -125 26 -231.5t76 -181t111 -127.5t131.5 -78
t137.5 -25q135 0 228.5 94t96.5 264q2 128 -26 240.5t-77 192t-113 137.5t-133.5 86t-139.5 28q-133 0 -223.5 -102.5t-94.5 -296.5z" />
    <glyph glyph-name="uni1EE2" unicode="&#x1ee2;" 
d="M846 -315q0 -35 -25.5 -60.5t-60.5 -25.5q-34 0 -59 25.5t-25 60.5q0 22 13.5 49t27 45t43.5 55q29 -34 44.5 -54t28.5 -46.5t13 -48.5zM752 1460q236 0 411 -135q47 17 64.5 35.5t10 37t-22 36t-29.5 39.5t-15 40q0 42 24.5 66.5t57.5 24.5t57.5 -25t24.5 -70
q0 -57 -41 -115t-114 -81q125 -104 193.5 -260.5t68.5 -337.5q0 -149 -47.5 -283.5t-134 -237.5t-218.5 -164t-290 -61t-290 61t-218 164t-133.5 237.5t-47.5 283.5t47.5 283.5t133.5 237.5t218 163.5t290 60.5zM872 27q227 -7 345 170q105 156 95 398q-11 245 -131 454
q-129 224 -334 309q-99 41 -210 45q-222 8 -343 -167q-107 -154 -101 -394q5 -245 122 -454q127 -225 335 -313q105 -44 222 -48z" />
    <glyph glyph-name="uni1EE3" unicode="&#x1ee3;" horiz-adv-x="1185" 
d="M678 -315q0 -35 -25.5 -60.5t-60.5 -25.5q-34 0 -59 25.5t-25 60.5q0 22 13.5 49t27 45t43.5 55q29 -34 44.5 -54t28.5 -46.5t13 -48.5zM592 1116q186 0 321 -106q46 17 62.5 35t9 36.5t-22 36t-29.5 39t-15 39.5q0 42 24 66t57 24t57.5 -24.5t24.5 -69.5
q0 -55 -41 -112.5t-112 -82.5q93 -79 142.5 -197t49.5 -253q0 -113 -36 -215.5t-102 -181t-167 -124.5t-223 -46q-121 0 -221.5 46t-166.5 124.5t-102 181t-36 215.5q0 114 36 216.5t102 181.5t166.5 125t221.5 46zM188 670q-2 -125 26 -231.5t76 -181t111 -127.5t131.5 -78
t137.5 -25q135 0 228.5 94t96.5 264q2 128 -26 240.5t-77 192t-113 137.5t-133.5 86t-139.5 28q-133 0 -223.5 -102.5t-94.5 -296.5z" />
    <glyph glyph-name="uni1EE4" unicode="&#x1ee4;" horiz-adv-x="1226" 
d="M700 -315q0 -35 -25.5 -60.5t-60.5 -25.5q-34 0 -59 25.5t-25 60.5q0 22 13.5 49t27 45t43.5 55q29 -34 44.5 -54t28.5 -46.5t13 -48.5zM1122 555q1 -109 -27 -201.5t-76.5 -157.5t-114 -111.5t-139 -68.5t-151.5 -22q-98 0 -188.5 36t-163 104t-116 177t-42.5 244v875
h136v-875q0 -120 35 -215.5t93.5 -153.5t131.5 -88t153 -30q83 0 162 32t142.5 91.5t102 154t38.5 209.5v875h24v-875z" />
    <glyph glyph-name="uni1EE5" unicode="&#x1ee5;" horiz-adv-x="1105" 
d="M631 -315q0 -35 -25.5 -60.5t-60.5 -25.5q-34 0 -59 25.5t-25 60.5q0 22 13.5 49t27 45t43.5 55q29 -34 44.5 -54t28.5 -46.5t13 -48.5zM854 1040l137 76v-1116l-137 51v289q-31 -174 -141.5 -268.5t-247.5 -94.5q-70 0 -135 26.5t-116.5 76t-82.5 128.5t-31 175v657
l138 76v-733q0 -145 87 -233.5t205 -88.5q61 0 117.5 27.5t103.5 81t75 145.5t28 209v516z" />
    <glyph glyph-name="uni1EE6" unicode="&#x1ee6;" horiz-adv-x="1226" 
d="M612 1774q0 42 24.5 66t57.5 24t57.5 -25t24.5 -70q0 -50 -38 -109.5t-79 -88.5l-4 4q21 27 24.5 50.5t-7 41.5t-23.5 34t-25 35.5t-12 37.5zM1122 555q1 -109 -27 -201.5t-76.5 -157.5t-114 -111.5t-139 -68.5t-151.5 -22q-98 0 -188.5 36t-163 104t-116 177t-42.5 244
v875h136v-875q0 -120 35 -215.5t93.5 -153.5t131.5 -88t153 -30q83 0 162 32t142.5 91.5t102 154t38.5 209.5v875h24v-875z" />
    <glyph glyph-name="uni1EE7" unicode="&#x1ee7;" horiz-adv-x="1105" 
d="M516 1446q0 42 24.5 66t57.5 24t57.5 -24.5t24.5 -69.5q0 -50 -38 -110t-79 -89l-4 4q21 27 24.5 50.5t-7 41.5t-23.5 34t-25 35.5t-12 37.5zM854 1040l137 76v-1116l-137 51v289q-31 -174 -141.5 -268.5t-247.5 -94.5q-70 0 -135 26.5t-116.5 76t-82.5 128.5t-31 175
v657l138 76v-733q0 -145 87 -233.5t205 -88.5q61 0 117.5 27.5t103.5 81t75 145.5t28 209v516z" />
    <glyph glyph-name="uni1EE8" unicode="&#x1ee8;" horiz-adv-x="1226" 
d="M561 1571l-6 8l207 270l82 -92zM1122 555q1 -109 -27 -201.5t-76.5 -157.5t-114 -111.5t-139 -68.5t-151.5 -22q-98 0 -188.5 36t-163 104t-116 177t-42.5 244v875h136v-875q0 -120 35 -215.5t93.5 -153.5t131.5 -88t153 -30q83 0 162 32t142.5 91.5t102 154t38.5 209.5
v875h24v-105q48 17 66 35t11 37t-21 36t-29.5 39.5t-15.5 40.5q0 42 24 66.5t57 24.5t57.5 -25t24.5 -70q0 -60 -46.5 -120.5t-127.5 -79.5v-754z" />
    <glyph glyph-name="uni1EE9" unicode="&#x1ee9;" horiz-adv-x="1105" 
d="M500 1243l-6 8l206 271l82 -92zM854 1040l137 76v-108q48 17 66 35t11 37t-21.5 36t-30 39.5t-15.5 40.5q0 42 24.5 66t57.5 24t57.5 -24.5t24.5 -69.5q0 -60 -46.5 -121t-127.5 -80v-991l-137 51v289q-31 -174 -141.5 -268.5t-247.5 -94.5q-70 0 -135 26.5t-116.5 76
t-82.5 128.5t-31 175v657l138 76v-733q0 -145 87 -233.5t205 -88.5q61 0 117.5 27.5t103.5 81t75 145.5t28 209v516z" />
    <glyph glyph-name="uni1EEA" unicode="&#x1eea;" horiz-adv-x="1226" 
d="M723 1579l-6 -8l-283 186l82 92zM1122 555q1 -109 -27 -201.5t-76.5 -157.5t-114 -111.5t-139 -68.5t-151.5 -22q-98 0 -188.5 36t-163 104t-116 177t-42.5 244v875h136v-875q0 -120 35 -215.5t93.5 -153.5t131.5 -88t153 -30q83 0 162 32t142.5 91.5t102 154t38.5 209.5
v875h24v-105q48 17 66 35t11 37t-21 36t-29.5 39.5t-15.5 40.5q0 42 24 66.5t57 24.5t57.5 -25t24.5 -70q0 -60 -46.5 -120.5t-127.5 -79.5v-754z" />
    <glyph glyph-name="uni1EEB" unicode="&#x1eeb;" horiz-adv-x="1105" 
d="M635 1251l-6 -8l-283 187l82 92zM854 1040l137 76v-108q48 17 66 35t11 37t-21.5 36t-30 39.5t-15.5 40.5q0 42 24.5 66t57.5 24t57.5 -24.5t24.5 -69.5q0 -60 -46.5 -121t-127.5 -80v-991l-137 51v289q-31 -174 -141.5 -268.5t-247.5 -94.5q-70 0 -135 26.5t-116.5 76
t-82.5 128.5t-31 175v657l138 76v-733q0 -145 87 -233.5t205 -88.5q61 0 117.5 27.5t103.5 81t75 145.5t28 209v516z" />
    <glyph glyph-name="uni1EEC" unicode="&#x1eec;" horiz-adv-x="1226" 
d="M612 1774q0 42 24.5 66t57.5 24t57.5 -25t24.5 -70q0 -50 -38 -109.5t-79 -88.5l-4 4q21 27 24.5 50.5t-7 41.5t-23.5 34t-25 35.5t-12 37.5zM1122 555q1 -109 -27 -201.5t-76.5 -157.5t-114 -111.5t-139 -68.5t-151.5 -22q-98 0 -188.5 36t-163 104t-116 177t-42.5 244
v875h136v-875q0 -120 35 -215.5t93.5 -153.5t131.5 -88t153 -30q83 0 162 32t142.5 91.5t102 154t38.5 209.5v875h24v-105q48 17 66 35t11 37t-21 36t-29.5 39.5t-15.5 40.5q0 42 24 66.5t57 24.5t57.5 -25t24.5 -70q0 -60 -46.5 -120.5t-127.5 -79.5v-754z" />
    <glyph glyph-name="uni1EED" unicode="&#x1eed;" horiz-adv-x="1105" 
d="M516 1446q0 42 24.5 66t57.5 24t57.5 -24.5t24.5 -69.5q0 -50 -38 -110t-79 -89l-4 4q21 27 24.5 50.5t-7 41.5t-23.5 34t-25 35.5t-12 37.5zM854 1040l137 76v-108q48 17 66 35t11 37t-21.5 36t-30 39.5t-15.5 40.5q0 42 24.5 66t57.5 24t57.5 -24.5t24.5 -69.5
q0 -60 -46.5 -121t-127.5 -80v-991l-137 51v289q-31 -174 -141.5 -268.5t-247.5 -94.5q-70 0 -135 26.5t-116.5 76t-82.5 128.5t-31 175v657l138 76v-733q0 -145 87 -233.5t205 -88.5q61 0 117.5 27.5t103.5 81t75 145.5t28 209v516z" />
    <glyph glyph-name="uni1EEE" unicode="&#x1eee;" horiz-adv-x="1226" 
d="M864 1679q-26 -108 -112 -108q-52 0 -149 48t-136 48q-59 0 -80 -76q-3 26 2 43q24 109 113 109q52 0 148.5 -48t135.5 -48q59 0 80 75q3 -26 -2 -43zM1122 555q1 -109 -27 -201.5t-76.5 -157.5t-114 -111.5t-139 -68.5t-151.5 -22q-98 0 -188.5 36t-163 104t-116 177
t-42.5 244v875h136v-875q0 -120 35 -215.5t93.5 -153.5t131.5 -88t153 -30q83 0 162 32t142.5 91.5t102 154t38.5 209.5v875h24v-105q48 17 66 35t11 37t-21 36t-29.5 39.5t-15.5 40.5q0 42 24 66.5t57 24.5t57.5 -25t24.5 -70q0 -60 -46.5 -120.5t-127.5 -79.5v-754z" />
    <glyph glyph-name="uni1EEF" unicode="&#x1eef;" horiz-adv-x="1105" 
d="M784 1372q-26 -108 -112 -108q-52 0 -149 48t-136 48q-59 0 -80 -76q-3 26 2 43q24 109 113 109q52 0 149 -48.5t136 -48.5q58 0 79 76q3 -26 -2 -43zM854 1040l137 76v-108q48 17 66 35t11 37t-21.5 36t-30 39.5t-15.5 40.5q0 42 24.5 66t57.5 24t57.5 -24.5t24.5 -69.5
q0 -60 -46.5 -121t-127.5 -80v-991l-137 51v289q-31 -174 -141.5 -268.5t-247.5 -94.5q-70 0 -135 26.5t-116.5 76t-82.5 128.5t-31 175v657l138 76v-733q0 -145 87 -233.5t205 -88.5q61 0 117.5 27.5t103.5 81t75 145.5t28 209v516z" />
    <glyph glyph-name="uni1EF0" unicode="&#x1ef0;" horiz-adv-x="1226" 
d="M700 -315q0 -35 -25.5 -60.5t-60.5 -25.5q-34 0 -59 25.5t-25 60.5q0 22 13.5 49t27 45t43.5 55q29 -34 44.5 -54t28.5 -46.5t13 -48.5zM1122 555q1 -109 -27 -201.5t-76.5 -157.5t-114 -111.5t-139 -68.5t-151.5 -22q-98 0 -188.5 36t-163 104t-116 177t-42.5 244v875
h136v-875q0 -120 35 -215.5t93.5 -153.5t131.5 -88t153 -30q83 0 162 32t142.5 91.5t102 154t38.5 209.5v875h24v-105q48 17 66 35t11 37t-21 36t-29.5 39.5t-15.5 40.5q0 42 24 66.5t57 24.5t57.5 -25t24.5 -70q0 -60 -46.5 -120.5t-127.5 -79.5v-754z" />
    <glyph glyph-name="uni1EF1" unicode="&#x1ef1;" horiz-adv-x="1105" 
d="M631 -315q0 -35 -25.5 -60.5t-60.5 -25.5q-34 0 -59 25.5t-25 60.5q0 22 13.5 49t27 45t43.5 55q29 -34 44.5 -54t28.5 -46.5t13 -48.5zM854 1040l137 76v-108q48 17 66 35t11 37t-21.5 36t-30 39.5t-15.5 40.5q0 42 24.5 66t57.5 24t57.5 -24.5t24.5 -69.5
q0 -60 -46.5 -121t-127.5 -80v-991l-137 51v289q-31 -174 -141.5 -268.5t-247.5 -94.5q-70 0 -135 26.5t-116.5 76t-82.5 128.5t-31 175v657l138 76v-733q0 -145 87 -233.5t205 -88.5q61 0 117.5 27.5t103.5 81t75 145.5t28 209v516z" />
    <glyph glyph-name="Ygrave" unicode="&#x1ef2;" horiz-adv-x="1056" 
d="M670 1579l-6 -8l-283 186l82 92zM623 649l2 -6h-2v-643h-138v643h-2l-487 787h156l460 -730l422 730h25l-436 -756v-25z" />
    <glyph glyph-name="ygrave" unicode="&#x1ef3;" horiz-adv-x="913" 
d="M578 1251l-7 -8l-282 187l82 92zM866 1104h31l-418 -1032q-8 -18 -23 -57q-27 -69 -44 -106t-50.5 -100.5t-69.5 -99.5t-87 -75.5t-118 -57.5t-148 -18v22q52 1 99.5 11.5t84 26t71 40.5t59 49t49 58.5t40 61t33 65.5t27 63t23.5 61.5t21 53.5q2 5 10 24.5t13 28.5
l-457 981h152l375 -805q63 156 166.5 410t160.5 395z" />
    <glyph glyph-name="uni1EF4" unicode="&#x1ef4;" horiz-adv-x="1056" 
d="M637 -315q0 -35 -25.5 -60.5t-60.5 -25.5q-34 0 -59 25.5t-25 60.5q0 22 13.5 49t27 45t43.5 55q29 -34 44.5 -54t28.5 -46.5t13 -48.5zM623 649l2 -6h-2v-643h-138v643h-2l-487 787h156l460 -730l422 730h25l-436 -756v-25z" />
    <glyph glyph-name="uni1EF5" unicode="&#x1ef5;" horiz-adv-x="913" 
d="M698 -315q0 -35 -25.5 -60.5t-60.5 -25.5q-34 0 -59 25.5t-25 60.5q0 22 13.5 49t27 45t43.5 55q29 -34 44.5 -54t28.5 -46.5t13 -48.5zM866 1104h31l-418 -1032q-8 -18 -23 -57q-27 -69 -44 -106t-50.5 -100.5t-69.5 -99.5t-87 -75.5t-118 -57.5t-148 -18v22
q52 1 99.5 11.5t84 26t71 40.5t59 49t49 58.5t40 61t33 65.5t27 63t23.5 61.5t21 53.5q2 5 10 24.5t13 28.5l-457 981h152l375 -805q63 156 166.5 410t160.5 395z" />
    <glyph glyph-name="uni1EF6" unicode="&#x1ef6;" horiz-adv-x="1056" 
d="M502 1774q0 42 24.5 66t57.5 24t57.5 -25t24.5 -70q0 -50 -38 -109.5t-79 -88.5l-4 4q21 27 24.5 50.5t-7 41.5t-23.5 34t-25 35.5t-12 37.5zM623 649l2 -6h-2v-643h-138v643h-2l-487 787h156l460 -730l422 730h25l-436 -756v-25z" />
    <glyph glyph-name="uni1EF7" unicode="&#x1ef7;" horiz-adv-x="913" 
d="M463 1446q0 42 24.5 66t57.5 24t57.5 -24.5t24.5 -69.5q0 -50 -38 -110t-79 -89l-4 4q28 32 25 62t-18 47.5t-32.5 42.5t-17.5 47zM866 1104h31l-418 -1032q-8 -18 -23 -57q-27 -69 -44 -106t-50.5 -100.5t-69.5 -99.5t-87 -75.5t-118 -57.5t-148 -18v22q52 1 99.5 11.5
t84 26t71 40.5t59 49t49 58.5t40 61t33 65.5t27 63t23.5 61.5t21 53.5q2 5 10 24.5t13 28.5l-457 981h152l375 -805q63 156 166.5 410t160.5 395z" />
    <glyph glyph-name="uni1EF8" unicode="&#x1ef8;" horiz-adv-x="1056" 
d="M784 1679q-26 -108 -112 -108q-52 0 -149 48t-136 48q-59 0 -80 -76q-3 26 2 43q24 109 113 109q52 0 149 -48t136 -48q58 0 79 75q3 -26 -2 -43zM623 649l2 -6h-2v-643h-138v643h-2l-487 787h156l460 -730l422 730h25l-436 -756v-25z" />
    <glyph glyph-name="uni1EF9" unicode="&#x1ef9;" horiz-adv-x="913" 
d="M700 1372q-26 -108 -112 -108q-52 0 -149 48t-136 48q-59 0 -80 -76q-3 26 2 43q24 109 113 109q52 0 149 -48.5t136 -48.5q58 0 79 76q3 -26 -2 -43zM866 1104h31l-418 -1032q-8 -18 -23 -57q-27 -69 -44 -106t-50.5 -100.5t-69.5 -99.5t-87 -75.5t-118 -57.5t-148 -18
v22q52 1 99.5 11.5t84 26t71 40.5t59 49t49 58.5t40 61t33 65.5t27 63t23.5 61.5t21 53.5q2 5 10 24.5t13 28.5l-457 981h152l375 -805q63 156 166.5 410t160.5 395z" />
    <glyph glyph-name="endash" unicode="&#x2013;" horiz-adv-x="733" 
d="M721 582h-709v22h709v-22z" />
    <glyph glyph-name="emdash" unicode="&#x2014;" horiz-adv-x="1513" 
d="M1499 582h-1487v22h1487v-22z" />
    <glyph glyph-name="quoteleft" unicode="&#x2018;" horiz-adv-x="215" 
d="M137 1481q-22 -26 -19.5 -50.5t14.5 -38.5t26 -34t14 -37q0 -34 -20 -54t-46 -20q-27 0 -46 20t-19 56q0 41 30.5 89t63.5 71z" />
    <glyph glyph-name="quoteright" unicode="&#x2019;" horiz-adv-x="210" 
d="M39 1411q0 33 19.5 52.5t45.5 19.5q27 0 46.5 -20t19.5 -56q0 -40 -30.5 -87.5t-63.5 -70.5l-2 2q23 25 20.5 49t-15 38t-26.5 34.5t-14 38.5z" />
    <glyph glyph-name="quotesinglbase" unicode="&#x201a;" horiz-adv-x="210" 
d="M39 88q0 34 19.5 53t45.5 19q27 0 46.5 -20t19.5 -56q0 -40 -30.5 -87.5t-63.5 -70.5l-2 2q23 26 20.5 50t-15 38t-26.5 34t-14 38z" />
    <glyph glyph-name="quotedblleft" unicode="&#x201c;" horiz-adv-x="354" 
d="M137 1481q-22 -26 -19.5 -50.5t14.5 -38.5t26 -34t14 -37q0 -34 -20 -54t-46 -20q-27 0 -46 20t-19 56q0 41 30.5 89t63.5 71zM276 1481q-22 -26 -19.5 -50.5t14.5 -38.5t26 -34t14 -37q0 -34 -19.5 -54t-45.5 -20q-27 0 -46.5 20t-19.5 56q0 41 30.5 89t63.5 71z" />
    <glyph glyph-name="quotedblright" unicode="&#x201d;" horiz-adv-x="350" 
d="M178 1411q0 33 19.5 52.5t46.5 19.5t46 -20t19 -56q0 -40 -30.5 -87.5t-63.5 -70.5l-2 2q22 25 19.5 49t-14.5 38t-26 34.5t-14 38.5zM39 1411q0 33 19.5 52.5t45.5 19.5q27 0 46.5 -20t19.5 -56q0 -40 -30.5 -87.5t-63.5 -70.5l-2 2q23 25 20.5 49t-15 38t-26.5 34.5
t-14 38.5z" />
    <glyph glyph-name="quotedblbase" unicode="&#x201e;" horiz-adv-x="350" 
d="M178 88q0 33 19.5 52.5t46.5 19.5t46 -20t19 -56q0 -40 -30.5 -87.5t-63.5 -70.5l-2 2q22 26 19.5 50t-14.5 38t-26 34t-14 38zM39 88q0 34 19.5 53t45.5 19q27 0 46.5 -20t19.5 -56q0 -40 -30.5 -87.5t-63.5 -70.5l-2 2q23 26 20.5 50t-15 38t-26.5 34t-14 38z" />
    <glyph glyph-name="bullet" unicode="&#x2022;" horiz-adv-x="417" 
d="M209 778q65 0 110.5 -45.5t45.5 -109.5q0 -65 -45.5 -110.5t-110.5 -45.5t-110.5 45.5t-45.5 110.5q0 64 45.5 109.5t110.5 45.5z" />
    <glyph glyph-name="ellipsis" unicode="&#x2026;" horiz-adv-x="802" 
d="M129 160q38 0 64 -27t26 -65q0 -37 -26 -64t-64 -27q-37 0 -63.5 27t-26.5 64q0 38 26.5 65t63.5 27zM401 160q37 0 64 -27t27 -65q0 -37 -27 -64t-64 -27q-38 0 -65 27t-27 64q0 38 27 65t65 27zM672 160q37 0 63.5 -27t26.5 -65q0 -37 -26.5 -64t-63.5 -27t-63.5 27
t-26.5 64q0 38 26.5 65t63.5 27z" />
    <glyph glyph-name="perthousand" unicode="&#x2030;" horiz-adv-x="1669" 
d="M55 -143l1004 1716h14l-1003 -1716h-15zM330 903q-63 0 -113.5 24t-81.5 63.5t-48 89.5t-17 102.5t17 102.5t48 89.5t81.5 63.5t113.5 24q62 0 112.5 -24t81.5 -63.5t47.5 -89.5t16.5 -102.5t-16.5 -102.5t-47.5 -89.5t-81.5 -63.5t-112.5 -24zM256 1440q-46 -12 -74 -50
t-34 -88t1 -107.5t31 -110t55.5 -93t75.5 -59t90 -6.5t74 50t34 88t-1 107.5t-31 110t-55.5 93t-75.5 59t-90 6.5zM799 528q63 0 113.5 -24t81.5 -63.5t48 -90t17 -103t-17 -103t-48 -90t-81.5 -63.5t-113.5 -24q-62 0 -112.5 24t-81.5 63.5t-47.5 90t-16.5 103t16.5 103
t47.5 90t81.5 63.5t112.5 24zM1354 528q62 0 112.5 -24t81.5 -63.5t47.5 -90t16.5 -103t-16.5 -103t-47.5 -90t-81.5 -63.5t-112.5 -24q-63 0 -113.5 24t-81.5 63.5t-48 90t-17 103t17 103t48 90t81.5 63.5t113.5 24zM872 -10q46 13 74 51t34 88.5t-1 107.5t-31 109.5
t-55.5 93t-75.5 59t-90 5.5q-46 -12 -74.5 -50t-34.5 -88t0.5 -107.5t31 -110t56 -93t76 -59t90.5 -6.5zM1425 -10q46 13 74.5 51t34.5 88.5t-0.5 107.5t-31 109.5t-56 93t-76 59t-90.5 5.5q-46 -12 -74 -50t-34 -88t1 -107.5t31 -110t55.5 -93t75.5 -59t90 -6.5z" />
    <glyph glyph-name="guilsinglleft" unicode="&#x2039;" horiz-adv-x="294" 
d="M53 623l152 211h35l-93 -211l93 -211h-35z" />
    <glyph glyph-name="guilsinglright" unicode="&#x203a;" horiz-adv-x="294" 
d="M90 834l150 -211l-150 -211h-37l92 211l-92 211h37z" />
    <glyph glyph-name="Euro" unicode="&#x20ac;" horiz-adv-x="1525" 
d="M1458 528l6 -2q-25 -133 -86 -239t-144.5 -172t-181 -100.5t-202.5 -34.5q-113 0 -218 40.5t-192 116.5t-145.5 199t-71.5 276h-170v21h168q-2 20 -2 67q0 110 17 191h-183v20h187q28 137 94 242.5t157.5 170t199 96.5t227.5 32q222 0 434 -102l-31 -62
q-217 127 -447 127q-148 0 -268.5 -55.5t-201 -171.5t-95.5 -277h619v-20h-621q-2 -18 -2 -55q0 -99 17 -203h606v-21h-602q27 -133 86.5 -236.5t139 -166.5t170 -95t187.5 -32q193 0 349 119.5t200 326.5z" />
    <glyph glyph-name="trademark" unicode="&#x2122;" horiz-adv-x="835" 
d="M717 1430h53v-406h-57v348l-125 -328h-2l-8 -20h-17l-158 352v-352h-16v406h49l154 -334zM41 1430h311v-11h-129v-395h-53v395h-129v11z" />
    </font>
</defs>
</svg>
