<svg width="18" height="20" viewBox="0 0 18 20" fill="none" xmlns="http://www.w3.org/2000/svg">
<path d="M16.7422 12.0703L9.17969 19.2031C9.05078 19.332 8.87891 19.375 8.75 19.375C8.57812 19.375 8.40625 19.332 8.27734 19.2031L0.714844 12.0703C0.414062 11.8125 0.414062 11.3828 0.671875 11.082C0.929688 10.7812 1.35938 10.7812 1.61719 11.0391L8.0625 17.0547V0.855469C8.0625 0.46875 8.36328 0.125 8.70703 0.125C9.05078 0.125 9.4375 0.46875 9.4375 0.855469V17.0547L15.8398 11.0391C16.0977 10.7812 16.5273 10.7812 16.7852 11.082C17.043 11.3828 17.043 11.8125 16.7422 12.0703Z" fill="#E1A146"/>
</svg>
